<svg width="800" height="300" viewBox="0 0 800 300" xmlns="http://www.w3.org/2000/svg">
  <style>
    @import url('https://fonts.googleapis.com/css2?family=Archivo:ital,wght@0,100..900;1,100..900&amp;family=B612+Mono:ital,wght@0,400;0,700;1,400;1,700&amp;display=swap');
    .background { fill: #ffffff; }
    .shape { fill: none; stroke: #d1d1c7; stroke-width: 2; }
    .label { font-family: "Archivo", sans-serif; font-size: 14px; fill: #111111; text-anchor: middle; font-weight: bold; }
    .sub-label { font-family: "B612 Mono", monospace; font-size: 12px; fill: #585855; text-anchor: middle; }
    .brand-accent { fill: #f04e30; }
    .phase-line { stroke: #d1d1c7; stroke-dasharray: 4; }
  </style>
  
  <!-- Background -->
  <rect width="800" height="300" class="background" />
  
  <!-- Diamond 1: Discover / Define -->
  <!-- Start Point -->
  <circle cx="50" cy="150" r="4" class="brand-accent" />
  
  <!-- The Diamond Shape -->
  <path d="M50 150 L200 50 L350 150 L200 250 Z" class="shape" />
  
  <!-- Diamond 2: Develop / Deliver -->
  <path d="M350 150 L500 50 L650 150 L500 250 Z" class="shape" />
  
  <!-- Run Phase: The Line -->
  <line x1="650" y1="150" x2="780" y2="150" class="shape" />
  <circle cx="780" cy="150" r="4" class="brand-accent" />

  <!-- Vertical Divider Lines -->
  <line x1="200" y1="50" x2="200" y2="250" class="phase-line" />
  <line x1="350" y1="50" x2="350" y2="250" class="phase-line" />
  <line x1="500" y1="50" x2="500" y2="250" class="phase-line" />
  <line x1="650" y1="50" x2="650" y2="250" class="phase-line" />

  <!-- Labels: DISCOVER -->
  <text x="125" y="40" class="label">DISCOVER</text>
  <text x="125" y="270" class="sub-label">Research &amp;</text>
  <text x="125" y="285" class="sub-label">Insight</text>

  <!-- Labels: DEFINE -->
  <text x="275" y="40" class="label">DEFINE</text>
  <text x="275" y="270" class="sub-label">Strategy &amp;</text>
  <text x="275" y="285" class="sub-label">Planning</text>

  <!-- Labels: DEVELOP -->
  <text x="425" y="40" class="label">SPEC</text>
  <text x="425" y="270" class="sub-label">Constitution</text>
  <text x="425" y="285" class="sub-label">&amp; Context</text>

  <!-- Labels: DELIVER -->
  <text x="575" y="40" class="label">ASSEMBLE</text>
  <text x="575" y="270" class="sub-label">Generation</text>
  <text x="575" y="285" class="sub-label">&amp; Verify</text>

  <!-- Labels: RUN -->
  <text x="715" y="40" class="label">RUN</text>
  <text x="715" y="140" class="sub-label">Operations</text>
  <text x="715" y="170" class="sub-label">&amp; Scale</text>

  <!-- ASDLC Logo (Top Right) -->
  <g transform="translate(730, 20) scale(0.4)">
    <g stroke="#050505" stroke-width="2" stroke-linecap="round" stroke-linejoin="round">
      <circle cx="60" cy="60" r="30" fill="none"/>
      <line x1="20" y1="65" x2="100" y2="55"/>
      <line x1="35" y1="45" x2="35" y2="75"/>
      <circle cx="35" cy="40" r="2.5" fill="none"/>
    </g>
    <g fill="#050505">
      <path d="M48.4,58l-1.2-3.6h-0.1L45.9,58h-1.7l2.3-6.6h1.9l2.3,6.6H48.4z M47.1,54l-0.5-1.7c-0.1-0.4-0.2-0.8-0.3-1.2h-0.1 c-0.1,0.4-0.2,0.8-0.3,1.2L45.3,54H47.1z"/> <path d="M51.7,58.1c-0.6,0-1.1-0.1-1.5-0.3l0.3-1.3c0.4,0.2,0.8,0.3,1.2,0.3c0.6,0,0.9-0.2,0.9-0.6c0-0.3-0.2-0.5-0.7-0.7 l-0.5-0.2c-0.8-0.3-1.3-0.8-1.3-1.6c0-1.1,0.8-1.8,2.1-1.8c0.6,0,1,0.1,1.4,0.2l-0.3,1.3c-0.3-0.1-0.7-0.2-1.1-0.2 c-0.5,0-0.8,0.2-0.8,0.5c0,0.3,0.2,0.5,0.7,0.7l0.5,0.2c0.8,0.3,1.3,0.8,1.3,1.7C53.9,57.3,53.1,58.1,51.7,58.1z"/> <path d="M55.7,58V51.5h1.8c1.3,0,2.2,0.7,2.2,1.8v2.9c0,1.1-0.9,1.8-2.2,1.8H55.7z M57.3,56.6c0.4,0,0.6-0.3,0.6-0.7v-2.7 c0-0.4-0.2-0.7-0.6-0.7h-0.2V56.6H57.3z"/> <path d="M61.6,58V51.5h1.6V56.6h1.9V58H61.6z"/> <path d="M68.2,58.1c-1.3,0-2.2-0.8-2.2-2.1v-2.4c0-1.3,0.9-2.1,2.2-2.1c0.6,0,1.1,0.2,1.4,0.4l-0.4,1.3 c-0.3-0.2-0.6-0.3-1-0.3c-0.5,0-0.8,0.3-0.8,0.8v2.4c0,0.5,0.3,0.8,0.8,0.8c0.4,0,0.8-0.1,1.1-0.3l0.4,1.3 C69.4,57.9,68.9,58.1,68.2,58.1z"/>
    </g>
    <g stroke="#0000ff" stroke-width="2" stroke-linecap="round" stroke-linejoin="round" fill="none">
        <path d="M50 70 L 55 68 L 52 74 L 58 72 L 55 78 L 62 76" />
        <circle cx="62" cy="82" r="1.5" fill="#0000ff" stroke="none"/>
    </g>
  </g>

</svg>
