<svg width="800" height="300" viewBox="0 0 800 300" xmlns="http://www.w3.org/2000/svg">
  <style>
    @import url('https://fonts.googleapis.com/css2?family=Archivo:ital,wght@0,100..900;1,100..900&amp;family=B612+Mono:ital,wght@0,400;0,700;1,400;1,700&amp;display=swap');
    .background { fill: #ffffff; }
    .shape { fill: none; stroke: #d1d1c7; stroke-width: 2; }
    .label { font-family: "Archivo", sans-serif; font-size: 14px; fill: #111111; text-anchor: middle; font-weight: bold; }
    .sub-label { font-family: "B612 Mono", monospace; font-size: 12px; fill: #585855; text-anchor: middle; }
    .brand-accent { fill: #f04e30; }
    .phase-line { stroke: #d1d1c7; stroke-dasharray: 4; }
  </style>
  
  <!-- Background -->
  <rect width="800" height="300" class="background" />
  
  <!-- Diamond 1: Discover / Define -->
  <!-- Start Point -->
  <circle cx="50" cy="150" r="4" class="brand-accent" />
  
  <!-- The Diamond Shape -->
  <path d="M50 150 L200 50 L350 150 L200 250 Z" class="shape" />
  
  <!-- Diamond 2: Develop / Deliver -->
  <path d="M350 150 L500 50 L650 150 L500 250 Z" class="shape" />
  
  <!-- Run Phase: The Line -->
  <line x1="650" y1="150" x2="780" y2="150" class="shape" />
  <circle cx="780" cy="150" r="4" class="brand-accent" />

  <!-- Vertical Divider Lines -->
  <line x1="200" y1="50" x2="200" y2="250" class="phase-line" />
  <line x1="350" y1="50" x2="350" y2="250" class="phase-line" />
  <line x1="500" y1="50" x2="500" y2="250" class="phase-line" />
  <line x1="650" y1="50" x2="650" y2="250" class="phase-line" />

  <!-- Labels: DISCOVER -->
  <text x="125" y="40" class="label">DISCOVER</text>
  <text x="125" y="270" class="sub-label">Research &amp;</text>
  <text x="125" y="285" class="sub-label">Insight</text>

  <!-- Labels: DEFINE -->
  <text x="275" y="40" class="label">DEFINE</text>
  <text x="275" y="270" class="sub-label">Strategy &amp;</text>
  <text x="275" y="285" class="sub-label">Planning</text>

  <!-- Labels: DEVELOP -->
  <text x="425" y="40" class="label">SPEC</text>
  <text x="425" y="270" class="sub-label">Constitution</text>
  <text x="425" y="285" class="sub-label">&amp; Context</text>

  <!-- Labels: DELIVER -->
  <text x="575" y="40" class="label">ASSEMBLE</text>
  <text x="575" y="270" class="sub-label">Generation</text>
  <text x="575" y="285" class="sub-label">&amp; Verify</text>

  <!-- Labels: RUN -->
  <text x="715" y="40" class="label">RUN</text>
  <text x="715" y="140" class="sub-label">Operations</text>
  <text x="715" y="170" class="sub-label">&amp; Scale</text>

  <!-- ASDLC Logo (Top Right) -->
  <g transform="translate(685, 20) scale(0.35)">
    <polygon fill="#d1d1c7" points="38.9 91.8 63.1 22.6 128 22.6 128 91.8 38.9 91.8"/>
    <g>
      <path fill="#111" d="M19.7,91.8L52.5,6.4h22.9l32.9,85.4h-20l-6.1-16.8h-37.2l-6.1,16.8h-19.2ZM50.3,60h26.5l-7.6-21c-.3-.9-.7-2-1.2-3.3-.5-1.3-.9-2.7-1.4-4.3-.5-1.6-1-3.1-1.4-4.7-.5-1.5-.9-2.9-1.3-4.2h-.7c-.4,1.6-1,3.4-1.6,5.5-.7,2.1-1.3,4.2-2,6.1-.7,2-1.2,3.5-1.6,4.8l-7.6,21Z"/>
      <g>
        <path fill="#111" d="M29.6,121.6c-1.3,0-2.6-.1-3.8-.4-1.2-.3-2.3-.7-3.2-1.3-.9-.6-1.6-1.4-2.2-2.3-.5-.9-.8-2-.8-3.2s0-.3,0-.4c0-.1,0-.2,0-.3h4.5s0,.1,0,.3c0,.1,0,.2,0,.3,0,.8.2,1.4.7,1.9.4.5,1.1,1,1.9,1.2.8.3,1.8.4,2.9.4s1.4,0,2-.1c.6,0,1.1-.2,1.5-.4.4-.2.8-.4,1.1-.6.3-.2.5-.5.6-.8s.2-.6.2-1c0-.7-.2-1.2-.6-1.7-.4-.4-1-.8-1.7-1.1s-1.5-.6-2.4-.8c-.9-.2-1.8-.5-2.7-.7-.9-.3-1.8-.6-2.7-.9-.9-.4-1.7-.8-2.4-1.3-.7-.5-1.3-1.1-1.7-1.9-.4-.8-.6-1.7-.6-2.8s.2-2.1.7-2.9c.5-.8,1.1-1.5,2-2.1.9-.5,1.9-.9,3-1.2,1.1-.3,2.4-.4,3.8-.4s2.5.1,3.6.4c1.1.3,2.1.7,2.9,1.2.9.6,1.5,1.3,2,2.1s.7,1.9.7,3.1v.4h-4.4v-.3c0-.7-.2-1.2-.6-1.7-.4-.5-1-.8-1.7-1.1-.7-.3-1.6-.4-2.5-.4s-1.9,0-2.7.3c-.7.2-1.3.5-1.7.9-.4.4-.6.8-.6,1.4s.2,1.1.6,1.4c.4.4,1,.7,1.7,1,.7.3,1.5.5,2.4.8.9.2,1.8.5,2.7.7.9.3,1.8.6,2.7.9.9.3,1.7.8,2.4,1.3.7.5,1.3,1.2,1.7,1.9.4.8.6,1.7.6,2.7,0,1.8-.4,3.2-1.3,4.3s-2,1.9-3.6,2.3c-1.5.5-3.2.7-5.2.7Z"/>
        <path fill="#111" d="M43.7,121.2v-23.7h9.5c2.4,0,4.4.4,6.1,1.3,1.7.9,3,2.1,3.9,3.9.9,1.7,1.4,4,1.4,6.7s-.5,4.9-1.4,6.7c-.9,1.7-2.2,3-3.9,3.9-1.7.9-3.7,1.3-6.1,1.3h-9.5ZM48.2,117.4h5c1.1,0,2.1-.2,2.9-.5.9-.3,1.6-.8,2.1-1.4.6-.6,1-1.4,1.3-2.4.3-1,.4-2.1.4-3.3v-.7c0-1.3-.1-2.4-.4-3.4-.3-1-.7-1.7-1.3-2.4-.6-.6-1.3-1.1-2.1-1.4-.9-.3-1.8-.5-2.9-.5h-5v16Z"/>
        <path fill="#111" d="M68.8,121.2v-23.7h4.5v19.8h11.9v3.9h-16.3Z"/>
        <path fill="#111" d="M97.9,121.6c-2.4,0-4.5-.4-6.2-1.3s-3-2.2-3.9-4-1.4-4.1-1.4-7c0-4.2,1-7.2,3-9.2,2-2,4.8-3,8.4-3s3.7.3,5.3,1c1.6.7,2.8,1.7,3.8,3s1.4,3.1,1.4,5.1h-4.6c0-1.1-.2-2.1-.7-2.9s-1.2-1.4-2.1-1.8c-.9-.4-1.9-.6-3-.6s-2.9.3-3.9.9c-1,.6-1.8,1.5-2.3,2.7-.5,1.2-.7,2.7-.7,4.4v.8c0,1.8.2,3.3.7,4.5.5,1.2,1.3,2.1,2.3,2.7,1,.6,2.3.9,3.9.9s2.2-.2,3.1-.6c.9-.4,1.6-1,2.1-1.8s.7-1.8.7-2.9h4.4c0,2.1-.5,3.8-1.4,5.1-.9,1.3-2.2,2.3-3.7,3-1.6.7-3.3,1-5.3,1Z"/>
      </g>
    </g>
  </g>

</svg>
