<svg xmlns="http://www.w3.org/2000/svg" viewBox="0 0 800 480" width="800" height="480">
  <defs>
    <style>
      @import url('https://fonts.googleapis.com/css2?family=Archivo:ital,wght@0,100..900;1,100..900&amp;family=B612+Mono:ital,wght@0,400;0,700;1,400;1,700&amp;display=swap');
      .text-sans { font-family: "Archivo", sans-serif; }
      .text-mono { font-family: "B612 Mono", monospace; }
    </style>
    <pattern id="pattern-lines" patternUnits="userSpaceOnUse" width="10" height="10" patternTransform="rotate(45)">
      <line x1="0" y1="0" x2="0" y2="10" stroke="#585855" stroke-width="2"/>
    </pattern>
    <symbol id="curve-path">
       <path d="M50,380 L57,380 L64,380 L71,379 L78,379 L85,379 L92,379 L99,378 L106,378 L113,377 L120,376 L127,375 L134,374 L141,372 L148,371 L155,368 L162,366 L169,363 L176,360 L183,356 L190,351 L197,346 L204,341 L211,335 L218,328 L225,321 L232,314 L239,306 L246,298 L253,289 L260,280 L267,271 L274,261 L281,252 L288,242 L295,232 L302,223 L309,213 L316,204 L323,195 L330,186 L337,178 L344,170 L351,163 L358,157 L365,151 L372,147 L379,143 L386,141 L393,140 L400,140 L407,140 L414,141 L421,143 L428,147 L435,151 L442,157 L449,163 L456,170 L463,178 L470,186 L477,195 L484,204 L491,213 L498,223 L505,232 L512,242 L519,252 L526,261 L533,271 L540,280 L547,289 L554,298 L561,306 L568,314 L575,321 L582,328 L589,335 L596,341 L603,346 L610,351 L617,356 L624,360 L631,363 L638,366 L645,368 L652,371 L659,372 L666,374 L673,375 L680,376 L687,377 L694,378 L701,378 L708,379 L715,379 L722,379 L729,379 L736,380 L743,380 L750,380" />
    </symbol>
    <clipPath id="clip-vibes"><rect x="0" y="0" width="235" height="480" /></clipPath>
    <clipPath id="clip-selective"><rect x="235" y="0" width="165" height="480" /></clipPath>
    <clipPath id="clip-asdlc"><rect x="400" y="0" width="165" height="480" /></clipPath>
    <clipPath id="clip-code"><rect x="565" y="0" width="235" height="480" /></clipPath>
  </defs>

  <rect width="100%" height="100%" fill="#ffffff"/>

  <g>
    <g clip-path="url(#clip-vibes)">
      <use href="#curve-path" fill="url(#pattern-lines)" />
      <path d="M50,380 L235,380 L235,318 Z" fill="url(#pattern-lines)" />
    </g>
    <g clip-path="url(#clip-selective)">
      <use href="#curve-path" fill="#ebebe6" />
      <path d="M235,380 L400,380 L400,140 Z" fill="#ebebe6" />
    </g>
    <g clip-path="url(#clip-asdlc)">
      <use href="#curve-path" fill="#f04e30" fill-opacity="0.9" />
      <path d="M400,380 L565,380 L565,318 Z" fill="#f04e30" fill-opacity="0.9" />
    </g>
    <g clip-path="url(#clip-code)">
      <use href="#curve-path" fill="#111111" />
      <path d="M565,380 L750,380 L750,380 Z" fill="#111111" />
    </g>
  </g>

  <use href="#curve-path" fill="none" stroke="#111111" stroke-width="2.5" stroke-linecap="round" />

  <line x1="50" y1="380" x2="750" y2="380" stroke="#111111" stroke-width="2"/>
  <line x1="50" y1="380" x2="50" y2="50" stroke="#111111" stroke-width="2"/>

  <g stroke="#111111" stroke-width="1" stroke-dasharray="4 4" opacity="0.4">
    <line x1="235" y1="395" x2="235" y2="50" />
    <line x1="400" y1="395" x2="400" y2="50" />
    <line x1="565" y1="395" x2="565" y2="50" />
  </g>

  <g class="text-mono" fill="#585855" font-size="12" text-anchor="middle" font-weight="bold">
    <text x="235" y="410">5%</text>
    <text x="400" y="415">Mean</text>
    <text x="565" y="410">95%</text>
  </g>

  <g class="text-sans" fill="#111111" font-size="14" font-weight="bold" text-anchor="middle">
    <text x="140" y="435"><tspan x="140" dy="0">100%</tspan><tspan x="140" dy="1.2em">Vibes</tspan></text>
    <text x="317" y="435"><tspan x="317" dy="0">Selective</tspan><tspan x="317" dy="1.2em">methodology</tspan></text>
    <text x="482" y="435"><tspan x="482" dy="0">Full</tspan><tspan x="482" dy="1.2em">ASDLC</tspan></text>
    <text x="660" y="435"><tspan x="660" dy="0">100%</tspan><tspan x="660" dy="1.2em">Code</tspan></text>
  </g>

  <svg x="670" y="10" width="80" height="80" viewBox="0 0 128 128">
    <polygon fill="#f04e30" points="38.9 91.8 63.1 22.6 128 22.6 128 91.8 38.9 91.8"/>
    <g fill="#111111">
      <path d="M19.7,91.8L52.5,6.4h22.9l32.9,85.4h-20l-6.1-16.8h-37.2l-6.1,16.8h-19.2ZM50.3,60h26.5l-7.6-21c-.3-.9-.7-2-1.2-3.3-.5-1.3-.9-2.7-1.4-4.3-.5-1.3-.9-2.7-1.4-4.3-.5-1.6-1-3.1-1.4-4.7-.5-1.5-.9-2.9-1.3-4.2h-.7c-.4,1.6-1,3.4-1.6,5.5-.7,2.1-1.3,4.2-2,6.1-.7,2-1.2,3.5-1.6,4.8l-7.6,21Z"/>
      <path d="M29.6,121.6c-1.3,0-2.6-.1-3.8-.4-1.2-.3-2.3-.7-3.2-1.3-.9-.6-1.6-1.4-2.2-2.3-.5-.9-.8-2-.8-3.2s0-.3,0-.4c0-.1,0-.2,0-.3h4.5s0,.1,0,.3c0,.1,0,.2,0,.3,0,.8.2,1.4.7,1.9.4.5,1.1,1,1.9,1.2.8.3,1.8.4,2.9.4s1.4,0,2-.1c.6,0,1.1-.2,1.5-.4.4-.2.8-.4,1.1-.6.3-.2.5-.5.6-.8s.2-.6.2-1c0-.7-.2-1.2-.6-1.7-.4-.4-1-.8-1.7-1.1s-1.5-.6-2.4-.8c-.9-.2-1.8-.5-2.7-.7-.9-.3-1.8-.6-2.7-.9-.9-.4-1.7-.8-2.4-1.3-.7-.5-1.3-1.1-1.7-1.9-.4-.8-.6-1.7-.6-2.8s.2-2.1.7-2.9c.5-.8,1.1-1.5,2-2.1.9-.5,1.9-.9,3-1.2,1.1-.3,2.4-.4,3.8-.4s2.5.1,3.6.4c1.1.3,2.1.7,2.9,1.2.9.6,1.5,1.3,2,2.1s.7,1.9.7,3.1v.4h-4.4v-.3c0-.7-.2-1.2-.6-1.7-.4-.5-1-.8-1.7-1.1-.7-.3-1.6-.4-2.5-.4s-1.9,0-2.7.3c-.7.2-1.3.5-1.7.9-.4.4-.6.8-.6,1.4s.2,1.1.6,1.4c.4.4,1,.7,1.7,1,.7.3,1.5.5,2.4.8.9.2,1.8.5,2.7.7.9.3,1.8.6,2.7.9.9.3,1.7.8,2.4,1.3.7.5,1.3,1.2,1.7,1.9.4.8.6,1.7.6,2.7,0,1.8-.4,3.2-1.3,4.3s-2,1.9-3.6,2.3c-1.5.5-3.2.7-5.2.7Z"/>
      <path d="M43.7,121.2v-23.7h9.5c2.4,0,4.4.4,6.1,1.3,1.7.9,3,2.1,3.9,3.9.9,1.7,1.4,4,1.4,6.7s-.5,4.9-1.4,6.7c-.9,1.7-2.2,3-3.9,3.9-1.7.9-3.7,1.3-6.1,1.3h-9.5ZM48.2,117.4h5c1.1,0,2.1-.2,2.9-.5.9-.3,1.6-.8,2.1-1.4.6-.6,1-1.4,1.3-2.4.3-1,.4-2.1.4-3.3v-.7c0-1.3-.1-2.4-.4-3.4-.3-1-.7-1.7-1.3-2.4-.6-.6-1.3-1.1-2.1-1.4-.9-.3-1.8-.5-2.9-.5h-5v16Z"/>
      <path d="M68.8,121.2v-23.7h4.5v19.8h11.9v3.9h-16.3Z"/>
      <path d="M97.9,121.6c-2.4,0-4.5-.4-6.2-1.3s-3-2.2-3.9-4-1.4-4.1-1.4-7c0-4.2,1-7.2,3-9.2,2-2,4.8-3,8.4-3s3.7.3,5.3,1c1.6.7,2.8,1.7,3.8,3s1.4,3.1,1.4,5.1h-4.6c0-1.1-.2-2.1-.7-2.9s-1.2-1.4-2.1-1.8c-.9-.4-1.9-.6-3-.6s-2.9.3-3.9.9c-1,.6-1.8,1.5-2.3,2.7-.5,1.2-.7,2.7-.7,4.4v.8c0,1.8.2,3.3.7,4.5.5,1.2,1.3,2.1,2.3,2.7,1,.6,2.3.9,3.9.9s2.2-.2,3.1-.6c.9-.4,1.6-1,2.1-1.8s.7-1.8.7-2.9h4.4c0,2.1-.5,3.8-1.4,5.1-.9,1.3-2.2,2.3-3.7,3-1.6.7-3.3,1-5.3,1Z"/>
    </g>
  </svg>
</svg>
