<svg id="my-svg" width="100%" xmlns="http://www.w3.org/2000/svg" xmlns:xlink="http://www.w3.org/1999/xlink" class="flowchart" style="max-width: 998.964px; background-color: transparent;" viewBox="0 0 998.96435546875 118.171875" role="graphics-document document" aria-roledescription="flowchart-v2"><style>#my-svg{font-family:"B612 Mono",monospace;font-size:16px;fill:#111111;}@keyframes edge-animation-frame{from{stroke-dashoffset:0;}}@keyframes dash{to{stroke-dashoffset:0;}}#my-svg .edge-animation-slow{stroke-dasharray:9,5!important;stroke-dashoffset:900;animation:dash 50s linear infinite;stroke-linecap:round;}#my-svg .edge-animation-fast{stroke-dasharray:9,5!important;stroke-dashoffset:900;animation:dash 20s linear infinite;stroke-linecap:round;}#my-svg .error-icon{fill:#f4f4f0;}#my-svg .error-text{fill:#0b0b0f;stroke:#0b0b0f;}#my-svg .edge-thickness-normal{stroke-width:1px;}#my-svg .edge-thickness-thick{stroke-width:3.5px;}#my-svg .edge-pattern-solid{stroke-dasharray:0;}#my-svg .edge-thickness-invisible{stroke-width:0;fill:none;}#my-svg .edge-pattern-dashed{stroke-dasharray:3;}#my-svg .edge-pattern-dotted{stroke-dasharray:2;}#my-svg .marker{fill:#111111;stroke:#111111;}#my-svg .marker.cross{stroke:#111111;}#my-svg svg{font-family:"B612 Mono",monospace;font-size:16px;}#my-svg p{margin:0;}#my-svg .label{font-family:"B612 Mono",monospace;color:#EEEEEE;}#my-svg .cluster-label text{fill:#0b0b0f;}#my-svg .cluster-label span{color:#0b0b0f;}#my-svg .cluster-label span p{background-color:transparent;}#my-svg .label text,#my-svg span{fill:#EEEEEE;color:#EEEEEE;}#my-svg .node rect,#my-svg .node circle,#my-svg .node ellipse,#my-svg .node polygon,#my-svg .node path{fill:#f04e30;stroke:#f04e30;stroke-width:1px;}#my-svg .rough-node .label text,#my-svg .node .label text,#my-svg .image-shape .label,#my-svg .icon-shape .label{text-anchor:middle;}#my-svg .node .katex path{fill:#000;stroke:#000;stroke-width:1px;}#my-svg .rough-node .label,#my-svg .node .label,#my-svg .image-shape .label,#my-svg .icon-shape .label{text-align:center;}#my-svg .node.clickable{cursor:pointer;}#my-svg .root .anchor path{fill:#111111!important;stroke-width:0;stroke:#111111;}#my-svg .arrowheadPath{fill:#0b0b0b;}#my-svg .edgePath .path{stroke:#111111;stroke-width:2.0px;}#my-svg .flowchart-link{stroke:#111111;fill:none;}#my-svg .edgeLabel{background-color:#f4f4f0;text-align:center;}#my-svg .edgeLabel p{background-color:#f4f4f0;}#my-svg .edgeLabel rect{opacity:0.5;background-color:#f4f4f0;fill:#f4f4f0;}#my-svg .labelBkg{background-color:rgba(244, 244, 240, 0.5);}#my-svg .cluster rect{fill:#ebebe6;stroke:#d1d1c7;stroke-width:1px;}#my-svg .cluster text{fill:#0b0b0f;}#my-svg .cluster span{color:#0b0b0f;}#my-svg div.mermaidTooltip{position:absolute;text-align:center;max-width:200px;padding:2px;font-family:"B612 Mono",monospace;font-size:12px;background:#f4f4f0;border:1px solid hsl(60, 0%, 84.9019607843%);border-radius:2px;pointer-events:none;z-index:100;}#my-svg .flowchartTitleText{text-anchor:middle;font-size:18px;fill:#111111;}#my-svg rect.text{fill:none;stroke-width:0;}#my-svg .icon-shape,#my-svg .image-shape{background-color:#f4f4f0;text-align:center;}#my-svg .icon-shape p,#my-svg .image-shape p{background-color:#f4f4f0;padding:2px;}#my-svg .icon-shape rect,#my-svg .image-shape rect{opacity:0.5;background-color:#f4f4f0;fill:#f4f4f0;}#my-svg .label-icon{display:inline-block;height:1em;overflow:visible;vertical-align:-0.125em;}#my-svg .node .label-icon path{fill:currentColor;stroke:revert;stroke-width:revert;}#my-svg .edgePath .path{stroke-width:3px;}#my-svg .cluster rect{rx:4px;ry:4px;}#my-svg .edgeLabel{color:#111111!important;}#my-svg .edgeLabel span,#my-svg .edgeLabel p{color:#111111!important;}#my-svg :root{--mermaid-font-family:"trebuchet ms",verdana,arial,sans-serif;}</style><g><marker id="my-svg_flowchart-v2-pointEnd" class="marker flowchart-v2" viewBox="0 0 10 10" refX="5" refY="5" markerUnits="userSpaceOnUse" markerWidth="8" markerHeight="8" orient="auto"><path d="M 0 0 L 10 5 L 0 10 z" class="arrowMarkerPath" style="stroke-width: 1; stroke-dasharray: 1, 0;"/></marker><marker id="my-svg_flowchart-v2-pointStart" class="marker flowchart-v2" viewBox="0 0 10 10" refX="4.5" refY="5" markerUnits="userSpaceOnUse" markerWidth="8" markerHeight="8" orient="auto"><path d="M 0 5 L 10 10 L 10 0 z" class="arrowMarkerPath" style="stroke-width: 1; stroke-dasharray: 1, 0;"/></marker><marker id="my-svg_flowchart-v2-circleEnd" class="marker flowchart-v2" viewBox="0 0 10 10" refX="11" refY="5" markerUnits="userSpaceOnUse" markerWidth="11" markerHeight="11" orient="auto"><circle cx="5" cy="5" r="5" class="arrowMarkerPath" style="stroke-width: 1; stroke-dasharray: 1, 0;"/></marker><marker id="my-svg_flowchart-v2-circleStart" class="marker flowchart-v2" viewBox="0 0 10 10" refX="-1" refY="5" markerUnits="userSpaceOnUse" markerWidth="11" markerHeight="11" orient="auto"><circle cx="5" cy="5" r="5" class="arrowMarkerPath" style="stroke-width: 1; stroke-dasharray: 1, 0;"/></marker><marker id="my-svg_flowchart-v2-crossEnd" class="marker cross flowchart-v2" viewBox="0 0 11 11" refX="12" refY="5.2" markerUnits="userSpaceOnUse" markerWidth="11" markerHeight="11" orient="auto"><path d="M 1,1 l 9,9 M 10,1 l -9,9" class="arrowMarkerPath" style="stroke-width: 2; stroke-dasharray: 1, 0;"/></marker><marker id="my-svg_flowchart-v2-crossStart" class="marker cross flowchart-v2" viewBox="0 0 11 11" refX="-1" refY="5.2" markerUnits="userSpaceOnUse" markerWidth="11" markerHeight="11" orient="auto"><path d="M 1,1 l 9,9 M 10,1 l -9,9" class="arrowMarkerPath" style="stroke-width: 2; stroke-dasharray: 1, 0;"/></marker><g class="root"><g class="clusters"/><g class="edgePaths"><path d="M96.906,59.086L101.073,59.086C105.24,59.086,113.573,59.086,121.24,59.086C128.906,59.086,135.906,59.086,139.406,59.086L142.906,59.086" id="L_PBI_Spec_0" class="edge-thickness-normal edge-pattern-solid edge-thickness-normal edge-pattern-solid flowchart-link" style=";" data-edge="true" data-et="edge" data-id="L_PBI_Spec_0" data-points="W3sieCI6OTYuOTA2MjUsInkiOjU5LjA4NTkzNzV9LHsieCI6MTIxLjkwNjI1LCJ5Ijo1OS4wODU5Mzc1fSx7IngiOjE0Ni45MDYyNSwieSI6NTkuMDg1OTM3NX1d" marker-end="url(#my-svg_flowchart-v2-pointEnd)"/><path d="M245.438,59.086L249.604,59.086C253.771,59.086,262.104,59.086,269.771,59.086C277.438,59.086,284.438,59.086,287.938,59.086L291.438,59.086" id="L_Spec_Code_0" class="edge-thickness-normal edge-pattern-solid edge-thickness-normal edge-pattern-solid flowchart-link" style=";" data-edge="true" data-et="edge" data-id="L_Spec_Code_0" data-points="W3sieCI6MjQ1LjQzNzUsInkiOjU5LjA4NTkzNzV9LHsieCI6MjcwLjQzNzUsInkiOjU5LjA4NTkzNzV9LHsieCI6Mjk1LjQzNzUsInkiOjU5LjA4NTkzNzV9XQ==" marker-end="url(#my-svg_flowchart-v2-pointEnd)"/><path d="M490.297,48.084L497.674,47.251C505.052,46.418,519.807,44.752,535.128,45.252C550.45,45.752,566.337,48.418,574.28,49.751L582.224,51.084" id="L_Code_Gates_0" class="edge-thickness-normal edge-pattern-solid edge-thickness-normal edge-pattern-solid flowchart-link" style=";" data-edge="true" data-et="edge" data-id="L_Code_Gates_0" data-points="W3sieCI6NDkwLjI5Njg3NSwieSI6NDguMDg0MzM4NTU4NjA5NDc0fSx7IngiOjUzNC41NjI1LCJ5Ijo0My4wODU5Mzc1fSx7IngiOjU4Ni4xNjg2MTQ3MjE0NjIyLCJ5Ijo1MS43NDU0NDc3Nzg1Mzc4NX1d" marker-end="url(#my-svg_flowchart-v2-pointEnd)"/><path d="M681,59.086L688.378,59.086C695.755,59.086,710.51,59.086,724.599,59.086C738.688,59.086,752.109,59.086,758.82,59.086L765.531,59.086" id="L_Gates_Merge_0" class="edge-thickness-normal edge-pattern-solid edge-thickness-normal edge-pattern-solid flowchart-link" style=";" data-edge="true" data-et="edge" data-id="L_Gates_Merge_0" data-points="W3sieCI6NjgxLCJ5Ijo1OS4wODU5Mzc1fSx7IngiOjcyNS4yNjU2MjUsInkiOjU5LjA4NTkzNzV9LHsieCI6NzY5LjUzMTI1LCJ5Ijo1OS4wODU5Mzc1fV0=" marker-end="url(#my-svg_flowchart-v2-pointEnd)"/><path d="M586.169,66.426L577.568,67.87C568.967,69.313,551.765,72.199,536.448,72.884C521.132,73.569,507.702,72.053,500.987,71.295L494.272,70.536" id="L_Gates_Code_0" class="edge-thickness-normal edge-pattern-solid edge-thickness-normal edge-pattern-solid flowchart-link" style=";" data-edge="true" data-et="edge" data-id="L_Gates_Code_0" data-points="W3sieCI6NTg2LjE2ODYxNDcyMTQ2MjIsInkiOjY2LjQyNjQyNzIyMTQ2MjE1fSx7IngiOjUzNC41NjI1LCJ5Ijo3NS4wODU5Mzc1fSx7IngiOjQ5MC4yOTY4NzUsInkiOjcwLjA4NzUzNjQ0MTM5MDUzfV0=" marker-end="url(#my-svg_flowchart-v2-pointEnd)"/><path d="M877.703,59.086L881.87,59.086C886.036,59.086,894.37,59.086,902.12,59.156C909.87,59.226,917.037,59.367,920.62,59.437L924.204,59.508" id="L_Merge_Done_0" class="edge-thickness-normal edge-pattern-solid edge-thickness-normal edge-pattern-solid flowchart-link" style=";" data-edge="true" data-et="edge" data-id="L_Merge_Done_0" data-points="W3sieCI6ODc3LjcwMzEyNSwieSI6NTkuMDg1OTM3NX0seyJ4Ijo5MDIuNzAzMTI1LCJ5Ijo1OS4wODU5Mzc1fSx7IngiOjkyOC4yMDMxMjQ5OTk5OTgxLCJ5Ijo1OS41ODU5Mzc1MDAwMDAwMX1d" marker-end="url(#my-svg_flowchart-v2-pointEnd)"/></g><g class="edgeLabels"><g class="edgeLabel"><g class="label" data-id="L_PBI_Spec_0" transform="translate(0, 0)"><foreignObject width="0" height="0"><div xmlns="http://www.w3.org/1999/xhtml" class="labelBkg" style="display: table-cell; white-space: nowrap; line-height: 1.5; max-width: 200px; text-align: center;"><span class="edgeLabel"></span></div></foreignObject></g></g><g class="edgeLabel"><g class="label" data-id="L_Spec_Code_0" transform="translate(0, 0)"><foreignObject width="0" height="0"><div xmlns="http://www.w3.org/1999/xhtml" class="labelBkg" style="display: table-cell; white-space: nowrap; line-height: 1.5; max-width: 200px; text-align: center;"><span class="edgeLabel"></span></div></foreignObject></g></g><g class="edgeLabel"><g class="label" data-id="L_Code_Gates_0" transform="translate(0, 0)"><foreignObject width="0" height="0"><div xmlns="http://www.w3.org/1999/xhtml" class="labelBkg" style="display: table-cell; white-space: nowrap; line-height: 1.5; max-width: 200px; text-align: center;"><span class="edgeLabel"></span></div></foreignObject></g></g><g class="edgeLabel" transform="translate(725.265625, 59.0859375)"><g class="label" data-id="L_Gates_Merge_0" transform="translate(-19.265625, -12)"><foreignObject width="38.53125" height="24"><div xmlns="http://www.w3.org/1999/xhtml" class="labelBkg" style="display: table-cell; white-space: nowrap; line-height: 1.5; max-width: 200px; text-align: center;"><span class="edgeLabel"><p>PASS</p></span></div></foreignObject></g></g><g class="edgeLabel" transform="translate(538.39919, 74.44214)"><g class="label" data-id="L_Gates_Code_0" transform="translate(-19.265625, -12)"><foreignObject width="38.53125" height="24"><div xmlns="http://www.w3.org/1999/xhtml" class="labelBkg" style="display: table-cell; white-space: nowrap; line-height: 1.5; max-width: 200px; text-align: center;"><span class="edgeLabel"><p>FAIL</p></span></div></foreignObject></g></g><g class="edgeLabel"><g class="label" data-id="L_Merge_Done_0" transform="translate(0, 0)"><foreignObject width="0" height="0"><div xmlns="http://www.w3.org/1999/xhtml" class="labelBkg" style="display: table-cell; white-space: nowrap; line-height: 1.5; max-width: 200px; text-align: center;"><span class="edgeLabel"></span></div></foreignObject></g></g></g><g class="nodes"><g class="node default" id="flowchart-PBI-0" transform="translate(52.453125, 59.0859375)"><rect class="basic label-container" style="" x="-44.453125" y="-27" width="88.90625" height="54"/><g class="label" style="" transform="translate(-14.453125, -12)"><rect/><foreignObject width="28.90625" height="24"><div xmlns="http://www.w3.org/1999/xhtml" style="display: table-cell; white-space: nowrap; line-height: 1.5; max-width: 200px; text-align: center;"><span class="nodeLabel"><p>PBI</p></span></div></foreignObject></g></g><g class="node default" id="flowchart-Spec-1" transform="translate(196.171875, 59.0859375)"><rect class="basic label-container" style="" x="-49.265625" y="-27" width="98.53125" height="54"/><g class="label" style="" transform="translate(-19.265625, -12)"><rect/><foreignObject width="38.53125" height="24"><div xmlns="http://www.w3.org/1999/xhtml" style="display: table-cell; white-space: nowrap; line-height: 1.5; max-width: 200px; text-align: center;"><span class="nodeLabel"><p>Spec</p></span></div></foreignObject></g></g><g class="node default" id="flowchart-Code-3" transform="translate(392.8671875, 59.0859375)"><rect class="basic label-container" style="" x="-97.4296875" y="-27" width="194.859375" height="54"/><g class="label" style="" transform="translate(-67.4296875, -12)"><rect/><foreignObject width="134.859375" height="24"><div xmlns="http://www.w3.org/1999/xhtml" style="display: table-cell; white-space: nowrap; line-height: 1.5; max-width: 200px; text-align: center;"><span class="nodeLabel"><p>Implementation</p></span></div></foreignObject></g></g><g class="node default" id="flowchart-Gates-5" transform="translate(629.9140625, 59.0859375)"><polygon points="51.0859375,0 102.171875,-51.0859375 51.0859375,-102.171875 0,-51.0859375" class="label-container" transform="translate(-50.5859375, 51.0859375)"/><g class="label" style="" transform="translate(-24.0859375, -12)"><rect/><foreignObject width="48.171875" height="24"><div xmlns="http://www.w3.org/1999/xhtml" style="display: table-cell; white-space: nowrap; line-height: 1.5; max-width: 200px; text-align: center;"><span class="nodeLabel"><p>Gates</p></span></div></foreignObject></g></g><g class="node default" id="flowchart-Merge-7" transform="translate(823.6171875, 59.0859375)"><rect class="basic label-container" style="" x="-54.0859375" y="-27" width="108.171875" height="54"/><g class="label" style="" transform="translate(-24.0859375, -12)"><rect/><foreignObject width="48.171875" height="24"><div xmlns="http://www.w3.org/1999/xhtml" style="display: table-cell; white-space: nowrap; line-height: 1.5; max-width: 200px; text-align: center;"><span class="nodeLabel"><p>Merge</p></span></div></foreignObject></g></g><g class="node default" id="flowchart-Done-11" transform="translate(959.3337306976318, 59.0859375)"><g class="basic label-container outer-path"><path d="M-12.140625 -19.5 C-7.270364840728975 -19.5, -2.4001046814579503 -19.5, 12.140625 -19.5 C12.140625 -19.5, 12.140624999999998 -19.5, 12.140624999999998 -19.5 C12.392055335617261 -19.491937118516216, 12.643485671234524 -19.483874237032428, 13.3899942896239 -19.45993515863156 C13.752149235028956 -19.42499850660338, 14.114304180434011 -19.390061854575197, 14.634229652847864 -19.3399052695533 C15.054156686906728 -19.27201472326945, 15.474083720965591 -19.204124176985598, 15.868218259676757 -19.140403561325776 C16.228405589663275 -19.05819315369834, 16.58859291964979 -18.97598274607091, 17.08688938623539 -18.862249829261074 C17.4669548646821 -18.749448390262497, 17.847020343128808 -18.636646951263923, 18.285235251460602 -18.50658706670804 C18.66027878097985 -18.368567580980574, 19.0353223104991 -18.230548095253106, 19.458331595147794 -18.074876768247425 C19.859724563200544 -17.897192008189815, 20.261117531253294 -17.71950724813221, 20.60135791279238 -17.568892924097174 C20.90942756966174 -17.40817318143646, 21.217497226531105 -17.24745343877575, 21.709617264076783 -16.990714730406097 C22.074863830604023 -16.76930011535021, 22.44011039713126 -16.54788550029432, 22.778555573605697 -16.342718045390892 C23.068144914189897 -16.14071305751986, 23.357734254774098 -15.93870806964883, 23.803780344578712 -15.627565626425154 C24.186966646901386 -15.321984747338574, 24.57015294922406 -15.016403868251995, 24.78107870850187 -14.848196188198123 C25.00265232156887 -14.64696889532722, 25.22422593463587 -14.445741602456314, 25.706434736767985 -14.007812326905688 C26.011451835957324 -13.692857129623127, 26.316468935146663 -13.377901932340565, 26.576045942968648 -13.10986736009568 C26.869518522140044 -12.76513776953814, 27.162991101311444 -12.4204081789806, 27.386338908126582 -12.158051136245305 C27.681343234340137 -11.762772214566139, 27.97634756055369 -11.367493292886973, 28.133983964640635 -11.156274872382312 C28.38922253780756 -10.764159882844355, 28.644461110974483 -10.372044893306398, 28.815908878604247 -10.108655082055241 C28.95579653821405 -9.860270377256484, 29.095684197823854 -9.611885672457726, 29.4293114742735 -9.019496659696287 C29.587180837377318 -8.691677549347961, 29.74505020048114 -8.363858438999635, 29.97167114880834 -7.893275190886684 C30.09714107025915 -7.583362059107288, 30.222610991709953 -7.273448927327891, 30.440759229970325 -6.734618561215508 C30.550949883675624 -6.402741868751599, 30.66114053738092 -6.070865176287691, 30.83464813421488 -5.548287939305138 C30.915094652986376 -5.241510497487641, 30.99554117175787 -4.934733055670145, 31.15171928754556 -4.339158212148133 C31.238396092512026 -3.8940911377945455, 31.325072897478492 -3.449024063440958, 31.390669776581777 -3.1121979531509023 C31.446400766666596 -2.6799593993818265, 31.502131756751414 -2.2477208456127507, 31.550517702509367 -1.872449005199798 C31.57681903575094 -1.4627845099081873, 31.603120368992517 -1.0531200146165764, 31.630606215913414 -0.6250057626472757 C31.630606215913414 -0.31799668539549336, 31.630606215913414 -0.010987608143711025, 31.630606215913414 0.625005762647271 C31.60118370160164 1.0832851724792258, 31.57176118728987 1.5415645823111808, 31.550517702509367 1.8724490051997846 C31.502753574232223 2.2428981520233573, 31.454989445955075 2.6133472988469304, 31.390669776581777 3.1121979531508885 C31.331627568346455 3.415367213864132, 31.272585360111137 3.718536474577375, 31.15171928754556 4.339158212148129 C31.03540949705843 4.78269785225762, 30.919099706571302 5.226237492367112, 30.834648134214884 5.548287939305125 C30.69175740054973 5.97865206255792, 30.548866666884575 6.409016185810714, 30.44075922997033 6.734618561215495 C30.300771636712092 7.0803906230393405, 30.16078404345385 7.426162684863186, 29.971671148808344 7.893275190886679 C29.832594356514377 8.18207112585175, 29.69351756422041 8.470867060816818, 29.429311474273504 9.019496659696284 C29.23847298808795 9.358349716410936, 29.047634501902394 9.697202773125591, 28.81590887860425 10.108655082055236 C28.55822855649659 10.50452125366756, 28.30054823438893 10.900387425279883, 28.13398396464064 11.156274872382301 C27.87657731132493 11.50117633759682, 27.61917065800922 11.84607780281134, 27.386338908126582 12.158051136245302 C27.099934827305322 12.494477666431823, 26.81353074648406 12.830904196618347, 26.57604594296866 13.10986736009567 C26.332195844116264 13.361662607626215, 26.088345745263865 13.613457855156762, 25.70643473676799 14.007812326905684 C25.416714484677218 14.270928594276715, 25.126994232586444 14.534044861647745, 24.781078708501887 14.848196188198111 C24.472871895040946 15.093982920205455, 24.164665081580004 15.3397696522128, 23.803780344578715 15.627565626425152 C23.575104346641666 15.787080103361637, 23.346428348704613 15.94659458029812, 22.778555573605708 16.34271804539089 C22.555871123086384 16.47771066793479, 22.333186672567063 16.61270329047869, 21.709617264076787 16.990714730406093 C21.447867333680517 17.127269501434995, 21.186117403284246 17.263824272463896, 20.601357912792388 17.56889292409717 C20.259116485921854 17.72039305154154, 19.916875059051318 17.871893178985903, 19.458331595147804 18.07487676824742 C19.057515893445984 18.22238065157342, 18.656700191744164 18.36988453489942, 18.285235251460616 18.506587066708033 C18.022298635308534 18.58462527419951, 17.759362019156452 18.662663481690984, 17.086889386235413 18.86224982926107 C16.746029240631255 18.940048933174896, 16.405169095027095 19.017848037088722, 15.868218259676766 19.140403561325773 C15.571640007260534 19.188352033177733, 15.275061754844302 19.23630050502969, 14.634229652847878 19.3399052695533 C14.214034181256205 19.380441021338758, 13.793838709664529 19.420976773124213, 13.3899942896239 19.45993515863156 C13.084106708944859 19.469744377969878, 12.778219128265818 19.4795535973082, 12.140625000000004 19.5 C12.140625000000002 19.5, 12.140625000000002 19.5, 12.140625 19.5 C3.9347484593274853 19.5, -4.271128081345029 19.5, -12.140624999999996 19.5 C-12.595131081033413 19.48542487462368, -13.049637162066828 19.470849749247353, -13.389994289623893 19.45993515863156 C-13.732050499346867 19.426937407462365, -14.074106709069842 19.393939656293167, -14.634229652847871 19.3399052695533 C-15.00561296496146 19.279862895771373, -15.376996277075047 19.219820521989448, -15.868218259676759 19.140403561325773 C-16.23346852469536 19.057037571816004, -16.598718789713967 18.973671582306235, -17.086889386235388 18.862249829261074 C-17.475279724614765 18.746977615532565, -17.86367006299414 18.631705401804055, -18.28523525146059 18.506587066708043 C-18.53007813835248 18.416482621028994, -18.774921025244364 18.326378175349944, -19.458331595147797 18.074876768247425 C-19.880720464244366 17.887897745618993, -20.303109333340938 17.70091872299056, -20.60135791279238 17.568892924097174 C-20.937614782435208 17.393467930587317, -21.273871652078032 17.218042937077456, -21.70961726407678 16.990714730406097 C-21.95651425531564 16.84104432338933, -22.2034112465545 16.691373916372562, -22.778555573605686 16.3427180453909 C-23.133861159230033 16.094872249790264, -23.489166744854376 15.847026454189624, -23.803780344578712 15.627565626425156 C-24.091417657483085 15.398182523734278, -24.379054970387458 15.1687994210434, -24.78107870850187 14.848196188198125 C-25.002681350462055 14.646942532054492, -25.22428399242224 14.44568887591086, -25.706434736767974 14.007812326905697 C-25.933841873135002 13.772995788133624, -26.16124900950203 13.538179249361551, -26.576045942968655 13.109867360095677 C-26.78547814913272 12.863856373705238, -26.99491035529679 12.617845387314798, -27.38633890812658 12.158051136245307 C-27.601445377829233 11.869828063446281, -27.816551847531887 11.581604990647254, -28.133983964640635 11.156274872382316 C-28.295064074711153 10.908812567248026, -28.45614418478167 10.661350262113736, -28.815908878604244 10.108655082055249 C-29.038967348731013 9.712592181225803, -29.262025818857786 9.316529280396358, -29.4293114742735 9.019496659696289 C-29.543753546064945 8.781855248953287, -29.65819561785639 8.544213838210286, -29.97167114880834 7.893275190886686 C-30.152371369180592 7.446942152966133, -30.333071589552844 7.000609115045581, -30.440759229970325 6.73461856121551 C-30.556956408747606 6.384651172244592, -30.673153587524887 6.034683783273674, -30.83464813421488 5.5482879393051325 C-30.944243047827403 5.130355034964564, -31.053837961439925 4.712422130623996, -31.151719287545557 4.339158212148136 C-31.21966631012864 3.990264611792307, -31.28761333271173 3.641371011436478, -31.390669776581777 3.112197953150904 C-31.423978542409873 2.853861742947962, -31.457287308237973 2.59552553274502, -31.550517702509364 1.872449005199809 C-31.577668558585312 1.449552506040357, -31.60481941466126 1.0266560068809047, -31.630606215913414 0.6250057626472781 C-31.630606215913414 0.21795408909105124, -31.630606215913414 -0.18909758446517566, -31.630606215913414 -0.6250057626472687 C-31.61418564054187 -0.880769478508957, -31.597765065170325 -1.1365331943706454, -31.550517702509367 -1.8724490051997822 C-31.51460023512733 -2.1510177895087064, -31.478682767745287 -2.4295865738176308, -31.390669776581777 -3.112197953150895 C-31.31780685567862 -3.486333652404834, -31.24494393477546 -3.8604693516587725, -31.15171928754556 -4.339158212148126 C-31.072316825030935 -4.6419542149613315, -30.992914362516313 -4.944750217774536, -30.834648134214884 -5.548287939305123 C-30.753347248762648 -5.793153252750287, -30.67204636331041 -6.0380185661954515, -30.440759229970332 -6.734618561215485 C-30.28824235524342 -7.111338190504133, -30.13572548051651 -7.488057819792781, -29.971671148808344 -7.893275190886676 C-29.841060882888737 -8.164490202680744, -29.71045061696913 -8.43570521447481, -29.429311474273504 -9.019496659696282 C-29.261653150232036 -9.31719099127817, -29.093994826190563 -9.614885322860061, -28.815908878604247 -10.108655082055243 C-28.574751214267817 -10.479138014376117, -28.333593549931386 -10.84962094669699, -28.13398396464064 -11.156274872382308 C-27.887940866474974 -11.48595020893694, -27.64189776830931 -11.815625545491569, -27.386338908126586 -12.158051136245302 C-27.096227654179945 -12.49883232292902, -26.806116400233304 -12.839613509612741, -26.576045942968662 -13.10986736009567 C-26.301659688714928 -13.393193695143081, -26.02727343446119 -13.67652003019049, -25.706434736767996 -14.007812326905677 C-25.36405941020351 -14.318748539736808, -25.02168408363902 -14.62968475256794, -24.781078708501887 -14.848196188198107 C-24.498853582171325 -15.073263216120706, -24.216628455840766 -15.298330244043303, -23.80378034457872 -15.627565626425149 C-23.555214981775883 -15.800954063295276, -23.306649618973047 -15.974342500165402, -22.77855557360571 -16.342718045390885 C-22.483398491047833 -16.52164400337302, -22.188241408489954 -16.700569961355153, -21.70961726407679 -16.99071473040609 C-21.35885664657041 -17.17370631988627, -21.008096029064028 -17.356697909366453, -20.601357912792388 -17.56889292409717 C-20.185018629377293 -17.753193974598997, -19.7686793459622 -17.93749502510082, -19.458331595147804 -18.07487676824742 C-19.14397090942443 -18.190564406511946, -18.829610223701053 -18.306252044776475, -18.28523525146062 -18.506587066708033 C-17.86398915934194 -18.631610695682998, -17.442743067223258 -18.756634324657963, -17.086889386235413 -18.862249829261067 C-16.79563045382743 -18.92872777994103, -16.504371521419447 -18.995205730620995, -15.868218259676768 -19.140403561325773 C-15.6025042589175 -19.18336214032568, -15.336790258158233 -19.226320719325585, -14.63422965284788 -19.3399052695533 C-14.271331643354065 -19.374913604080454, -13.908433633860252 -19.409921938607614, -13.389994289623903 -19.45993515863156 C-13.00431801105514 -19.472303046211923, -12.61864173248638 -19.484670933792287, -12.140625000000005 -19.5 C-12.140625000000004 -19.5, -12.140625000000004 -19.5, -12.140625 -19.5" stroke="none" stroke-width="0" fill="#f04e30" style=""/><path d="M-12.140625 -19.5 C-6.85355636329703 -19.5, -1.56648772659406 -19.5, 12.140625 -19.5 M-12.140625 -19.5 C-4.543156919489999 -19.5, 3.054311161020003 -19.5, 12.140625 -19.5 M12.140625 -19.5 C12.140625 -19.5, 12.140624999999998 -19.5, 12.140624999999998 -19.5 M12.140625 -19.5 C12.140625 -19.5, 12.140625 -19.5, 12.140624999999998 -19.5 M12.140624999999998 -19.5 C12.423149843955235 -19.490939978155605, 12.705674687910472 -19.481879956311207, 13.3899942896239 -19.45993515863156 M12.140624999999998 -19.5 C12.490299535898064 -19.488786618233945, 12.839974071796131 -19.477573236467887, 13.3899942896239 -19.45993515863156 M13.3899942896239 -19.45993515863156 C13.68744713606936 -19.431240240274352, 13.98489998251482 -19.402545321917145, 14.634229652847864 -19.3399052695533 M13.3899942896239 -19.45993515863156 C13.775675677605093 -19.422728938982747, 14.161357065586285 -19.38552271933393, 14.634229652847864 -19.3399052695533 M14.634229652847864 -19.3399052695533 C15.051665403264398 -19.272417494688547, 15.46910115368093 -19.204929719823795, 15.868218259676757 -19.140403561325776 M14.634229652847864 -19.3399052695533 C14.984989475887978 -19.283197141547227, 15.335749298928095 -19.226489013541155, 15.868218259676757 -19.140403561325776 M15.868218259676757 -19.140403561325776 C16.15821640743477 -19.074213376514777, 16.448214555192784 -19.00802319170378, 17.08688938623539 -18.862249829261074 M15.868218259676757 -19.140403561325776 C16.162353591816096 -19.073269091177394, 16.456488923955433 -19.00613462102901, 17.08688938623539 -18.862249829261074 M17.08688938623539 -18.862249829261074 C17.35610727305445 -18.782347373606704, 17.62532515987351 -18.70244491795233, 18.285235251460602 -18.50658706670804 M17.08688938623539 -18.862249829261074 C17.452791903460774 -18.753651882810086, 17.818694420686157 -18.6450539363591, 18.285235251460602 -18.50658706670804 M18.285235251460602 -18.50658706670804 C18.636277294774587 -18.377400349771417, 18.98731933808857 -18.248213632834794, 19.458331595147794 -18.074876768247425 M18.285235251460602 -18.50658706670804 C18.55489845446998 -18.407348515261265, 18.82456165747936 -18.30810996381449, 19.458331595147794 -18.074876768247425 M19.458331595147794 -18.074876768247425 C19.86481049927773 -17.89494061515738, 20.271289403407668 -17.715004462067334, 20.60135791279238 -17.568892924097174 M19.458331595147794 -18.074876768247425 C19.912321160618085 -17.873909054735698, 20.366310726088376 -17.672941341223975, 20.60135791279238 -17.568892924097174 M20.60135791279238 -17.568892924097174 C20.892067424709705 -17.417229957938236, 21.182776936627032 -17.265566991779295, 21.709617264076783 -16.990714730406097 M20.60135791279238 -17.568892924097174 C21.005594502753738 -17.358002954040227, 21.4098310927151 -17.14711298398328, 21.709617264076783 -16.990714730406097 M21.709617264076783 -16.990714730406097 C22.025953086515933 -16.798950095847843, 22.342288908955087 -16.607185461289593, 22.778555573605697 -16.342718045390892 M21.709617264076783 -16.990714730406097 C22.13579984362022 -16.73236034616003, 22.56198242316366 -16.47400596191396, 22.778555573605697 -16.342718045390892 M22.778555573605697 -16.342718045390892 C23.06266761965354 -16.144533781080167, 23.346779665701376 -15.946349516769443, 23.803780344578712 -15.627565626425154 M22.778555573605697 -16.342718045390892 C23.0086512139174 -16.182213287389178, 23.238746854229102 -16.021708529387467, 23.803780344578712 -15.627565626425154 M23.803780344578712 -15.627565626425154 C24.061987129219972 -15.421652586844859, 24.32019391386123 -15.215739547264564, 24.78107870850187 -14.848196188198123 M23.803780344578712 -15.627565626425154 C24.087371006261865 -15.401409620397287, 24.370961667945018 -15.175253614369419, 24.78107870850187 -14.848196188198123 M24.78107870850187 -14.848196188198123 C24.97716931555874 -14.670111887142227, 25.173259922615614 -14.492027586086332, 25.706434736767985 -14.007812326905688 M24.78107870850187 -14.848196188198123 C24.99817725103494 -14.651033035982259, 25.215275793568004 -14.453869883766396, 25.706434736767985 -14.007812326905688 M25.706434736767985 -14.007812326905688 C25.899317736620727 -13.808644793568934, 26.09220073647347 -13.60947726023218, 26.576045942968648 -13.10986736009568 M25.706434736767985 -14.007812326905688 C25.9581305308417 -13.747915754915574, 26.209826324915415 -13.48801918292546, 26.576045942968648 -13.10986736009568 M26.576045942968648 -13.10986736009568 C26.781367107338983 -12.868685437321064, 26.986688271709323 -12.627503514546447, 27.386338908126582 -12.158051136245305 M26.576045942968648 -13.10986736009568 C26.783676842984406 -12.865972290404272, 26.99130774300016 -12.622077220712864, 27.386338908126582 -12.158051136245305 M27.386338908126582 -12.158051136245305 C27.59874048111089 -11.873452378627698, 27.811142054095203 -11.588853621010092, 28.133983964640635 -11.156274872382312 M27.386338908126582 -12.158051136245305 C27.6449818364419 -11.811493175158281, 27.903624764757218 -11.464935214071255, 28.133983964640635 -11.156274872382312 M28.133983964640635 -11.156274872382312 C28.30403101146735 -10.895036944430837, 28.47407805829407 -10.633799016479362, 28.815908878604247 -10.108655082055241 M28.133983964640635 -11.156274872382312 C28.34414711546251 -10.833407836012032, 28.554310266284386 -10.510540799641753, 28.815908878604247 -10.108655082055241 M28.815908878604247 -10.108655082055241 C29.039978551006215 -9.710796689190854, 29.26404822340818 -9.312938296326465, 29.4293114742735 -9.019496659696287 M28.815908878604247 -10.108655082055241 C28.986792316557263 -9.805234234145209, 29.157675754510276 -9.501813386235176, 29.4293114742735 -9.019496659696287 M29.4293114742735 -9.019496659696287 C29.541380439841426 -8.786783054802765, 29.653449405409347 -8.554069449909244, 29.97167114880834 -7.893275190886684 M29.4293114742735 -9.019496659696287 C29.599046888099146 -8.667037441131274, 29.76878230192479 -8.314578222566261, 29.97167114880834 -7.893275190886684 M29.97167114880834 -7.893275190886684 C30.126759090401688 -7.510204976729746, 30.281847031995035 -7.127134762572808, 30.440759229970325 -6.734618561215508 M29.97167114880834 -7.893275190886684 C30.15208086614751 -7.447659701074336, 30.33249058348668 -7.002044211261989, 30.440759229970325 -6.734618561215508 M30.440759229970325 -6.734618561215508 C30.59297877893786 -6.276157532616817, 30.745198327905392 -5.817696504018126, 30.83464813421488 -5.548287939305138 M30.440759229970325 -6.734618561215508 C30.579235241529474 -6.317550877555555, 30.717711253088623 -5.900483193895601, 30.83464813421488 -5.548287939305138 M30.83464813421488 -5.548287939305138 C30.9192170179372 -5.225790133285875, 31.003785901659523 -4.903292327266611, 31.15171928754556 -4.339158212148133 M30.83464813421488 -5.548287939305138 C30.923805997131264 -5.20829036674275, 31.01296386004765 -4.868292794180363, 31.15171928754556 -4.339158212148133 M31.15171928754556 -4.339158212148133 C31.242419572929 -3.8734314162162757, 31.33311985831244 -3.4077046202844183, 31.390669776581777 -3.1121979531509023 M31.15171928754556 -4.339158212148133 C31.210744598005796 -4.036075717938602, 31.269769908466035 -3.7329932237290713, 31.390669776581777 -3.1121979531509023 M31.390669776581777 -3.1121979531509023 C31.434806982430214 -2.769878500467564, 31.47894418827865 -2.427559047784226, 31.550517702509367 -1.872449005199798 M31.390669776581777 -3.1121979531509023 C31.433174953874534 -2.782536191664921, 31.47568013116729 -2.45287443017894, 31.550517702509367 -1.872449005199798 M31.550517702509367 -1.872449005199798 C31.576139252842395 -1.4733726774196965, 31.601760803175424 -1.074296349639595, 31.630606215913414 -0.6250057626472757 M31.550517702509367 -1.872449005199798 C31.568987695759496 -1.584763951618841, 31.58745768900962 -1.297078898037884, 31.630606215913414 -0.6250057626472757 M31.630606215913414 -0.6250057626472757 C31.630606215913414 -0.3328071160153272, 31.630606215913414 -0.0406084693833787, 31.630606215913414 0.625005762647271 M31.630606215913414 -0.6250057626472757 C31.630606215913414 -0.1907438136249987, 31.630606215913414 0.2435181353972783, 31.630606215913414 0.625005762647271 M31.630606215913414 0.625005762647271 C31.606359196324764 1.002672664582427, 31.582112176736118 1.3803395665175833, 31.550517702509367 1.8724490051997846 M31.630606215913414 0.625005762647271 C31.610175271121555 0.9432342193422613, 31.5897443263297 1.2614626760372514, 31.550517702509367 1.8724490051997846 M31.550517702509367 1.8724490051997846 C31.499934008626326 2.264766146076466, 31.44935031474329 2.657083286953147, 31.390669776581777 3.1121979531508885 M31.550517702509367 1.8724490051997846 C31.506011402794776 2.217631077023195, 31.461505103080185 2.5628131488466046, 31.390669776581777 3.1121979531508885 M31.390669776581777 3.1121979531508885 C31.31238759329519 3.5141604193822262, 31.2341054100086 3.9161228856135644, 31.15171928754556 4.339158212148129 M31.390669776581777 3.1121979531508885 C31.33668988342471 3.3893732958579696, 31.282709990267644 3.666548638565051, 31.15171928754556 4.339158212148129 M31.15171928754556 4.339158212148129 C31.03801832196674 4.772749272210378, 30.924317356387917 5.206340332272626, 30.834648134214884 5.548287939305125 M31.15171928754556 4.339158212148129 C31.046172720548906 4.741653016277872, 30.94062615355225 5.144147820407616, 30.834648134214884 5.548287939305125 M30.834648134214884 5.548287939305125 C30.706876442336046 5.933115917589713, 30.579104750457205 6.3179438958743, 30.44075922997033 6.734618561215495 M30.834648134214884 5.548287939305125 C30.704332731120253 5.940777170486339, 30.57401732802562 6.333266401667551, 30.44075922997033 6.734618561215495 M30.44075922997033 6.734618561215495 C30.266528988809284 7.164970625395831, 30.09229874764824 7.595322689576168, 29.971671148808344 7.893275190886679 M30.44075922997033 6.734618561215495 C30.263720990512052 7.171906435478952, 30.08668275105377 7.60919430974241, 29.971671148808344 7.893275190886679 M29.971671148808344 7.893275190886679 C29.755086373800665 8.343018110361927, 29.53850159879299 8.792761029837173, 29.429311474273504 9.019496659696284 M29.971671148808344 7.893275190886679 C29.79907816553231 8.251668213557613, 29.62648518225628 8.610061236228546, 29.429311474273504 9.019496659696284 M29.429311474273504 9.019496659696284 C29.284760288427588 9.276161927560501, 29.140209102581668 9.53282719542472, 28.81590887860425 10.108655082055236 M29.429311474273504 9.019496659696284 C29.25060350746527 9.336810750908215, 29.071895540657042 9.654124842120149, 28.81590887860425 10.108655082055236 M28.81590887860425 10.108655082055236 C28.563411800264106 10.496558399344824, 28.310914721923957 10.884461716634412, 28.13398396464064 11.156274872382301 M28.81590887860425 10.108655082055236 C28.622111537641075 10.406379839647274, 28.428314196677896 10.704104597239311, 28.13398396464064 11.156274872382301 M28.13398396464064 11.156274872382301 C27.86149184216956 11.521389491950506, 27.588999719698478 11.886504111518711, 27.386338908126582 12.158051136245302 M28.13398396464064 11.156274872382301 C27.899085482738553 11.471017438439166, 27.664187000836463 11.785760004496032, 27.386338908126582 12.158051136245302 M27.386338908126582 12.158051136245302 C27.0850785427001 12.51192870367566, 26.783818177273616 12.865806271106015, 26.57604594296866 13.10986736009567 M27.386338908126582 12.158051136245302 C27.174561367350126 12.406817086124772, 26.962783826573673 12.65558303600424, 26.57604594296866 13.10986736009567 M26.57604594296866 13.10986736009567 C26.247353119867064 13.449269686130718, 25.91866029676547 13.788672012165765, 25.70643473676799 14.007812326905684 M26.57604594296866 13.10986736009567 C26.32789759892446 13.366100898679244, 26.079749254880262 13.62233443726282, 25.70643473676799 14.007812326905684 M25.70643473676799 14.007812326905684 C25.496042887032388 14.198884638172258, 25.285651037296784 14.389956949438833, 24.781078708501887 14.848196188198111 M25.70643473676799 14.007812326905684 C25.476753616038142 14.21640264372309, 25.247072495308295 14.424992960540493, 24.781078708501887 14.848196188198111 M24.781078708501887 14.848196188198111 C24.471155169313246 15.095351963289305, 24.161231630124608 15.3425077383805, 23.803780344578715 15.627565626425152 M24.781078708501887 14.848196188198111 C24.40727197232283 15.146297112885893, 24.033465236143776 15.444398037573675, 23.803780344578715 15.627565626425152 M23.803780344578715 15.627565626425152 C23.55157359199471 15.8034941391734, 23.299366839410702 15.97942265192165, 22.778555573605708 16.34271804539089 M23.803780344578715 15.627565626425152 C23.480431171231718 15.853120012191905, 23.15708199788472 16.078674397958657, 22.778555573605708 16.34271804539089 M22.778555573605708 16.34271804539089 C22.445408461190198 16.544673782726917, 22.112261348774684 16.746629520062942, 21.709617264076787 16.990714730406093 M22.778555573605708 16.34271804539089 C22.432169688600162 16.552699204470656, 22.085783803594616 16.762680363550427, 21.709617264076787 16.990714730406093 M21.709617264076787 16.990714730406093 C21.298288291937947 17.205304791702147, 20.886959319799104 17.419894852998198, 20.601357912792388 17.56889292409717 M21.709617264076787 16.990714730406093 C21.269875585523128 17.22012768243955, 20.830133906969472 17.449540634473003, 20.601357912792388 17.56889292409717 M20.601357912792388 17.56889292409717 C20.250760071744775 17.72409218821351, 19.900162230697163 17.879291452329852, 19.458331595147804 18.07487676824742 M20.601357912792388 17.56889292409717 C20.310525570689986 17.697635774711, 20.019693228587585 17.826378625324832, 19.458331595147804 18.07487676824742 M19.458331595147804 18.07487676824742 C19.080071792164347 18.214079872340623, 18.701811989180886 18.353282976433825, 18.285235251460616 18.506587066708033 M19.458331595147804 18.07487676824742 C19.206144391836283 18.16768399025901, 18.953957188524765 18.260491212270605, 18.285235251460616 18.506587066708033 M18.285235251460616 18.506587066708033 C17.980569056957204 18.597010394011157, 17.675902862453793 18.68743372131428, 17.086889386235413 18.86224982926107 M18.285235251460616 18.506587066708033 C17.869383177962156 18.6300097792703, 17.453531104463696 18.753432491832566, 17.086889386235413 18.86224982926107 M17.086889386235413 18.86224982926107 C16.83203197960263 18.920419369225, 16.577174572969845 18.97858890918893, 15.868218259676766 19.140403561325773 M17.086889386235413 18.86224982926107 C16.696534098467357 18.95134587638782, 16.306178810699304 19.040441923514564, 15.868218259676766 19.140403561325773 M15.868218259676766 19.140403561325773 C15.490242798821896 19.20151170259331, 15.112267337967026 19.26261984386085, 14.634229652847878 19.3399052695533 M15.868218259676766 19.140403561325773 C15.602194959131731 19.183412145516385, 15.336171658586698 19.226420729707, 14.634229652847878 19.3399052695533 M14.634229652847878 19.3399052695533 C14.29772574786048 19.37236739656228, 13.961221842873078 19.404829523571255, 13.3899942896239 19.45993515863156 M14.634229652847878 19.3399052695533 C14.182469069641076 19.383486069693667, 13.730708486434276 19.427066869834036, 13.3899942896239 19.45993515863156 M13.3899942896239 19.45993515863156 C12.901809126291502 19.475590306624852, 12.413623962959104 19.49124545461815, 12.140625000000004 19.5 M13.3899942896239 19.45993515863156 C12.910178383017326 19.475321920851425, 12.430362476410753 19.490708683071293, 12.140625000000004 19.5 M12.140625000000004 19.5 C12.140625000000002 19.5, 12.140625000000002 19.5, 12.140625 19.5 M12.140625000000004 19.5 C12.140625000000004 19.5, 12.140625000000002 19.5, 12.140625 19.5 M12.140625 19.5 C3.963851687788326 19.5, -4.212921624423348 19.5, -12.140624999999996 19.5 M12.140625 19.5 C3.768690101912439 19.5, -4.603244796175122 19.5, -12.140624999999996 19.5 M-12.140624999999996 19.5 C-12.408454341585186 19.491411234313553, -12.676283683170375 19.482822468627102, -13.389994289623893 19.45993515863156 M-12.140624999999996 19.5 C-12.563601229162163 19.486435975604056, -12.986577458324328 19.47287195120811, -13.389994289623893 19.45993515863156 M-13.389994289623893 19.45993515863156 C-13.859775685992439 19.414615912318677, -14.329557082360985 19.369296666005795, -14.634229652847871 19.3399052695533 M-13.389994289623893 19.45993515863156 C-13.654090126437197 19.434458150875894, -13.9181859632505 19.408981143120226, -14.634229652847871 19.3399052695533 M-14.634229652847871 19.3399052695533 C-15.095459641048569 19.26533718195299, -15.556689629249266 19.190769094352678, -15.868218259676759 19.140403561325773 M-14.634229652847871 19.3399052695533 C-14.9183568220152 19.29396979228143, -15.202483991182527 19.248034315009562, -15.868218259676759 19.140403561325773 M-15.868218259676759 19.140403561325773 C-16.345850187011177 19.031387190751303, -16.823482114345595 18.92237082017683, -17.086889386235388 18.862249829261074 M-15.868218259676759 19.140403561325773 C-16.34260121472038 19.032128747475152, -16.816984169763995 18.92385393362453, -17.086889386235388 18.862249829261074 M-17.086889386235388 18.862249829261074 C-17.50636854245418 18.73775061758636, -17.925847698672975 18.613251405911647, -18.28523525146059 18.506587066708043 M-17.086889386235388 18.862249829261074 C-17.432058935530083 18.759805318862348, -17.777228484824775 18.65736080846362, -18.28523525146059 18.506587066708043 M-18.28523525146059 18.506587066708043 C-18.585205237258965 18.39619533904209, -18.885175223057338 18.285803611376135, -19.458331595147797 18.074876768247425 M-18.28523525146059 18.506587066708043 C-18.566292090330958 18.40315555194281, -18.84734892920132 18.29972403717758, -19.458331595147797 18.074876768247425 M-19.458331595147797 18.074876768247425 C-19.86929614165588 17.89295495433843, -20.280260688163963 17.71103314042943, -20.60135791279238 17.568892924097174 M-19.458331595147797 18.074876768247425 C-19.776454245296655 17.934053307799655, -20.09457689544551 17.79322984735188, -20.60135791279238 17.568892924097174 M-20.60135791279238 17.568892924097174 C-20.881301443845857 17.422846563258965, -21.161244974899333 17.276800202420755, -21.70961726407678 16.990714730406097 M-20.60135791279238 17.568892924097174 C-20.836173352397225 17.446389859661792, -21.07098879200207 17.323886795226414, -21.70961726407678 16.990714730406097 M-21.70961726407678 16.990714730406097 C-22.04191872280855 16.789271633302768, -22.37422018154032 16.587828536199435, -22.778555573605686 16.3427180453909 M-21.70961726407678 16.990714730406097 C-21.933331951061902 16.855097572462284, -22.157046638047024 16.719480414518475, -22.778555573605686 16.3427180453909 M-22.778555573605686 16.3427180453909 C-22.997450853648022 16.190026173857316, -23.21634613369036 16.037334302323732, -23.803780344578712 15.627565626425156 M-22.778555573605686 16.3427180453909 C-23.185087813691055 16.059138753204383, -23.59162005377642 15.775559461017869, -23.803780344578712 15.627565626425156 M-23.803780344578712 15.627565626425156 C-24.099689366725787 15.391586055732649, -24.395598388872862 15.155606485040142, -24.78107870850187 14.848196188198125 M-23.803780344578712 15.627565626425156 C-24.066365101861233 15.4181612701662, -24.328949859143755 15.208756913907242, -24.78107870850187 14.848196188198125 M-24.78107870850187 14.848196188198125 C-25.122439113036933 14.53818170070075, -25.463799517572 14.228167213203374, -25.706434736767974 14.007812326905697 M-24.78107870850187 14.848196188198125 C-25.025759952263943 14.62598315652436, -25.270441196026017 14.403770124850595, -25.706434736767974 14.007812326905697 M-25.706434736767974 14.007812326905697 C-25.985124135501785 13.72004264188788, -26.26381353423559 13.432272956870062, -26.576045942968655 13.109867360095677 M-25.706434736767974 14.007812326905697 C-26.01320914517015 13.691042563583112, -26.319983553572328 13.37427280026053, -26.576045942968655 13.109867360095677 M-26.576045942968655 13.109867360095677 C-26.754359772475357 12.900409789612771, -26.93267360198206 12.690952219129864, -27.38633890812658 12.158051136245307 M-26.576045942968655 13.109867360095677 C-26.840758060381578 12.798921444436274, -27.1054701777945 12.48797552877687, -27.38633890812658 12.158051136245307 M-27.38633890812658 12.158051136245307 C-27.584987896850297 11.891879588650694, -27.783636885574015 11.62570804105608, -28.133983964640635 11.156274872382316 M-27.38633890812658 12.158051136245307 C-27.57168702603866 11.909701543804028, -27.757035143950745 11.661351951362748, -28.133983964640635 11.156274872382316 M-28.133983964640635 11.156274872382316 C-28.280788775518577 10.930743260262389, -28.42759358639652 10.705211648142463, -28.815908878604244 10.108655082055249 M-28.133983964640635 11.156274872382316 C-28.34042384014417 10.839127786740422, -28.546863715647703 10.521980701098526, -28.815908878604244 10.108655082055249 M-28.815908878604244 10.108655082055249 C-28.940354808801807 9.887688731472585, -29.064800738999367 9.66672238088992, -29.4293114742735 9.019496659696289 M-28.815908878604244 10.108655082055249 C-29.024236836501565 9.738747697315302, -29.232564794398883 9.368840312575356, -29.4293114742735 9.019496659696289 M-29.4293114742735 9.019496659696289 C-29.56892795419622 8.729580051822648, -29.70854443411894 8.439663443949007, -29.97167114880834 7.893275190886686 M-29.4293114742735 9.019496659696289 C-29.592399524728002 8.680840833402248, -29.755487575182503 8.342185007108206, -29.97167114880834 7.893275190886686 M-29.97167114880834 7.893275190886686 C-30.110297449426746 7.550865548202031, -30.248923750045154 7.208455905517376, -30.440759229970325 6.73461856121551 M-29.97167114880834 7.893275190886686 C-30.13892605672194 7.480152334686437, -30.306180964635537 7.067029478486188, -30.440759229970325 6.73461856121551 M-30.440759229970325 6.73461856121551 C-30.528214825477118 6.4712162417059025, -30.615670420983907 6.207813922196294, -30.83464813421488 5.5482879393051325 M-30.440759229970325 6.73461856121551 C-30.527940103466406 6.472043660631149, -30.61512097696249 6.209468760046788, -30.83464813421488 5.5482879393051325 M-30.83464813421488 5.5482879393051325 C-30.92336281573721 5.2099804094743, -31.01207749725954 4.871672879643467, -31.151719287545557 4.339158212148136 M-30.83464813421488 5.5482879393051325 C-30.926435512292237 5.198262885794876, -31.018222890369593 4.84823783228462, -31.151719287545557 4.339158212148136 M-31.151719287545557 4.339158212148136 C-31.227867048600253 3.9481555529672727, -31.30401480965495 3.5571528937864096, -31.390669776581777 3.112197953150904 M-31.151719287545557 4.339158212148136 C-31.199945895215798 4.09152477445859, -31.24817250288604 3.843891336769045, -31.390669776581777 3.112197953150904 M-31.390669776581777 3.112197953150904 C-31.432975733737244 2.78408130370926, -31.475281690892714 2.4559646542676163, -31.550517702509364 1.872449005199809 M-31.390669776581777 3.112197953150904 C-31.425135651544608 2.8448874329960065, -31.45960152650744 2.577576912841109, -31.550517702509364 1.872449005199809 M-31.550517702509364 1.872449005199809 C-31.571983742515584 1.538098105027304, -31.593449782521805 1.2037472048547986, -31.630606215913414 0.6250057626472781 M-31.550517702509364 1.872449005199809 C-31.57828027517808 1.4400245263392408, -31.606042847846798 1.0076000474786728, -31.630606215913414 0.6250057626472781 M-31.630606215913414 0.6250057626472781 C-31.630606215913414 0.16179179786314524, -31.630606215913414 -0.30142216692098767, -31.630606215913414 -0.6250057626472687 M-31.630606215913414 0.6250057626472781 C-31.630606215913414 0.1543103882143212, -31.630606215913414 -0.31638498621863576, -31.630606215913414 -0.6250057626472687 M-31.630606215913414 -0.6250057626472687 C-31.604448915572767 -1.0324268292456515, -31.57829161523212 -1.4398478958440344, -31.550517702509367 -1.8724490051997822 M-31.630606215913414 -0.6250057626472687 C-31.600004513407896 -1.1016519804203908, -31.56940281090238 -1.578298198193513, -31.550517702509367 -1.8724490051997822 M-31.550517702509367 -1.8724490051997822 C-31.50521678464998 -2.2237939784391276, -31.459915866790595 -2.575138951678473, -31.390669776581777 -3.112197953150895 M-31.550517702509367 -1.8724490051997822 C-31.51579115231325 -2.141781270987916, -31.481064602117126 -2.41111353677605, -31.390669776581777 -3.112197953150895 M-31.390669776581777 -3.112197953150895 C-31.320315785093324 -3.4734508301227414, -31.249961793604868 -3.8347037070945875, -31.15171928754556 -4.339158212148126 M-31.390669776581777 -3.112197953150895 C-31.32051814354843 -3.4724117622242483, -31.25036651051508 -3.832625571297602, -31.15171928754556 -4.339158212148126 M-31.15171928754556 -4.339158212148126 C-31.056977074545653 -4.700451331851629, -30.962234861545745 -5.061744451555132, -30.834648134214884 -5.548287939305123 M-31.15171928754556 -4.339158212148126 C-31.07866926931995 -4.617729591720554, -31.005619251094338 -4.896300971292983, -30.834648134214884 -5.548287939305123 M-30.834648134214884 -5.548287939305123 C-30.697804066665444 -5.960440467622795, -30.560959999116008 -6.372592995940467, -30.440759229970332 -6.734618561215485 M-30.834648134214884 -5.548287939305123 C-30.711250878189766 -5.91994081377001, -30.587853622164644 -6.291593688234897, -30.440759229970332 -6.734618561215485 M-30.440759229970332 -6.734618561215485 C-30.28572006702744 -7.117568291162725, -30.13068090408455 -7.500518021109967, -29.971671148808344 -7.893275190886676 M-30.440759229970332 -6.734618561215485 C-30.309560191229934 -7.058682723465122, -30.178361152489536 -7.382746885714758, -29.971671148808344 -7.893275190886676 M-29.971671148808344 -7.893275190886676 C-29.776242247902616 -8.299087485126039, -29.580813346996884 -8.704899779365403, -29.429311474273504 -9.019496659696282 M-29.971671148808344 -7.893275190886676 C-29.772702069551762 -8.306438741219267, -29.57373299029518 -8.719602291551858, -29.429311474273504 -9.019496659696282 M-29.429311474273504 -9.019496659696282 C-29.301174988371347 -9.247015965641747, -29.173038502469186 -9.474535271587213, -28.815908878604247 -10.108655082055243 M-29.429311474273504 -9.019496659696282 C-29.29530544563795 -9.25743793312054, -29.1612994170024 -9.495379206544799, -28.815908878604247 -10.108655082055243 M-28.815908878604247 -10.108655082055243 C-28.60730227284171 -10.429130847223504, -28.398695667079178 -10.749606612391768, -28.13398396464064 -11.156274872382308 M-28.815908878604247 -10.108655082055243 C-28.621237149573954 -10.407723134524444, -28.42656542054366 -10.706791186993646, -28.13398396464064 -11.156274872382308 M-28.13398396464064 -11.156274872382308 C-27.85135577305261 -11.534970901152333, -27.568727581464575 -11.913666929922359, -27.386338908126586 -12.158051136245302 M-28.13398396464064 -11.156274872382308 C-27.85591019164837 -11.528868395150084, -27.577836418656094 -11.901461917917862, -27.386338908126586 -12.158051136245302 M-27.386338908126586 -12.158051136245302 C-27.204910870158322 -12.371166833190637, -27.023482832190062 -12.58428253013597, -26.576045942968662 -13.10986736009567 M-27.386338908126586 -12.158051136245302 C-27.20415028582747 -12.37206025882413, -27.021961663528355 -12.58606938140296, -26.576045942968662 -13.10986736009567 M-26.576045942968662 -13.10986736009567 C-26.380205026156382 -13.312089185542645, -26.184364109344102 -13.514311010989621, -25.706434736767996 -14.007812326905677 M-26.576045942968662 -13.10986736009567 C-26.246255367458474 -13.450403205619738, -25.91646479194829 -13.790939051143805, -25.706434736767996 -14.007812326905677 M-25.706434736767996 -14.007812326905677 C-25.413626574842773 -14.273732952286737, -25.12081841291755 -14.5396535776678, -24.781078708501887 -14.848196188198107 M-25.706434736767996 -14.007812326905677 C-25.447977640592516 -14.242536223252216, -25.189520544417036 -14.477260119598755, -24.781078708501887 -14.848196188198107 M-24.781078708501887 -14.848196188198107 C-24.517125548745202 -15.058691809015492, -24.253172388988514 -15.269187429832876, -23.80378034457872 -15.627565626425149 M-24.781078708501887 -14.848196188198107 C-24.425060356845158 -15.132111349598128, -24.06904200518843 -15.41602651099815, -23.80378034457872 -15.627565626425149 M-23.80378034457872 -15.627565626425149 C-23.590698504170543 -15.776202294129687, -23.377616663762367 -15.924838961834228, -22.77855557360571 -16.342718045390885 M-23.80378034457872 -15.627565626425149 C-23.547059784973253 -15.80664277555201, -23.29033922536779 -15.985719924678872, -22.77855557360571 -16.342718045390885 M-22.77855557360571 -16.342718045390885 C-22.39618642637694 -16.574512469491495, -22.013817279148167 -16.8063068935921, -21.70961726407679 -16.99071473040609 M-22.77855557360571 -16.342718045390885 C-22.425737709638657 -16.556598307915625, -22.072919845671603 -16.770478570440364, -21.70961726407679 -16.99071473040609 M-21.70961726407679 -16.99071473040609 C-21.296400190827214 -17.206289812842225, -20.883183117577637 -17.421864895278365, -20.601357912792388 -17.56889292409717 M-21.70961726407679 -16.99071473040609 C-21.46280314310982 -17.11947749922257, -21.21598902214285 -17.248240268039048, -20.601357912792388 -17.56889292409717 M-20.601357912792388 -17.56889292409717 C-20.37001851708467 -17.67130001213763, -20.13867912137695 -17.773707100178083, -19.458331595147804 -18.07487676824742 M-20.601357912792388 -17.56889292409717 C-20.24015879196698 -17.728785060295348, -19.878959671141573 -17.88867719649353, -19.458331595147804 -18.07487676824742 M-19.458331595147804 -18.07487676824742 C-19.052363855492715 -18.22427664916514, -18.646396115837625 -18.37367653008286, -18.28523525146062 -18.506587066708033 M-19.458331595147804 -18.07487676824742 C-19.03259616308291 -18.231551342702495, -18.606860731018017 -18.38822591715757, -18.28523525146062 -18.506587066708033 M-18.28523525146062 -18.506587066708033 C-17.993655716851492 -18.593126342047814, -17.70207618224236 -18.67966561738759, -17.086889386235413 -18.862249829261067 M-18.28523525146062 -18.506587066708033 C-17.981481071642165 -18.596739712839923, -17.677726891823713 -18.686892358971814, -17.086889386235413 -18.862249829261067 M-17.086889386235413 -18.862249829261067 C-16.83281341095966 -18.920241012617073, -16.5787374356839 -18.978232195973078, -15.868218259676768 -19.140403561325773 M-17.086889386235413 -18.862249829261067 C-16.643553694198676 -18.963438307932694, -16.200218002161943 -19.06462678660432, -15.868218259676768 -19.140403561325773 M-15.868218259676768 -19.140403561325773 C-15.564214283420368 -19.18955256662086, -15.26021030716397 -19.23870157191595, -14.63422965284788 -19.3399052695533 M-15.868218259676768 -19.140403561325773 C-15.508842717921835 -19.19850461191776, -15.149467176166901 -19.25660566250975, -14.63422965284788 -19.3399052695533 M-14.63422965284788 -19.3399052695533 C-14.203642680778904 -19.381443476892194, -13.773055708709927 -19.42298168423109, -13.389994289623903 -19.45993515863156 M-14.63422965284788 -19.3399052695533 C-14.164266049922597 -19.385242093113575, -13.694302446997314 -19.430578916673852, -13.389994289623903 -19.45993515863156 M-13.389994289623903 -19.45993515863156 C-12.922008150616554 -19.474942563229764, -12.454022011609204 -19.48994996782797, -12.140625000000005 -19.5 M-13.389994289623903 -19.45993515863156 C-13.035586362394374 -19.471300331044628, -12.681178435164844 -19.482665503457696, -12.140625000000005 -19.5 M-12.140625000000005 -19.5 C-12.140625000000004 -19.5, -12.140625000000002 -19.5, -12.140625 -19.5 M-12.140625000000005 -19.5 C-12.140625000000004 -19.5, -12.140625000000002 -19.5, -12.140625 -19.5" stroke="#f04e30" stroke-width="1.3" fill="none" stroke-dasharray="0 0" style=""/></g><g class="label" style="" transform="translate(-19.265625, -12)"><rect/><foreignObject width="38.53125" height="24"><div xmlns="http://www.w3.org/1999/xhtml" style="display: table-cell; white-space: nowrap; line-height: 1.5; max-width: 200px; text-align: center;"><span class="nodeLabel"><p>Done</p></span></div></foreignObject></g></g></g></g></g></svg>