<svg id="my-svg" width="100%" xmlns="http://www.w3.org/2000/svg" xmlns:xlink="http://www.w3.org/1999/xlink" class="flowchart" style="max-width: 998.964px; background-color: transparent;" viewBox="0 0 998.96435546875 118.171875" role="graphics-document document" aria-roledescription="flowchart-v2"><style>#my-svg{font-family:"B612 Mono",monospace;font-size:16px;fill:#111111;}@keyframes edge-animation-frame{from{stroke-dashoffset:0;}}@keyframes dash{to{stroke-dashoffset:0;}}#my-svg .edge-animation-slow{stroke-dasharray:9,5!important;stroke-dashoffset:900;animation:dash 50s linear infinite;stroke-linecap:round;}#my-svg .edge-animation-fast{stroke-dasharray:9,5!important;stroke-dashoffset:900;animation:dash 20s linear infinite;stroke-linecap:round;}#my-svg .error-icon{fill:#f4f4f0;}#my-svg .error-text{fill:#0b0b0f;stroke:#0b0b0f;}#my-svg .edge-thickness-normal{stroke-width:1px;}#my-svg .edge-thickness-thick{stroke-width:3.5px;}#my-svg .edge-pattern-solid{stroke-dasharray:0;}#my-svg .edge-thickness-invisible{stroke-width:0;fill:none;}#my-svg .edge-pattern-dashed{stroke-dasharray:3;}#my-svg .edge-pattern-dotted{stroke-dasharray:2;}#my-svg .marker{fill:#111111;stroke:#111111;}#my-svg .marker.cross{stroke:#111111;}#my-svg svg{font-family:"B612 Mono",monospace;font-size:16px;}#my-svg p{margin:0;}#my-svg .label{font-family:"B612 Mono",monospace;color:#EEEEEE;}#my-svg .cluster-label text{fill:#0b0b0f;}#my-svg .cluster-label span{color:#0b0b0f;}#my-svg .cluster-label span p{background-color:transparent;}#my-svg .label text,#my-svg span{fill:#EEEEEE;color:#EEEEEE;}#my-svg .node rect,#my-svg .node circle,#my-svg .node ellipse,#my-svg .node polygon,#my-svg .node path{fill:#f04e30;stroke:#f04e30;stroke-width:1px;}#my-svg .rough-node .label text,#my-svg .node .label text,#my-svg .image-shape .label,#my-svg .icon-shape .label{text-anchor:middle;}#my-svg .node .katex path{fill:#000;stroke:#000;stroke-width:1px;}#my-svg .rough-node .label,#my-svg .node .label,#my-svg .image-shape .label,#my-svg .icon-shape .label{text-align:center;}#my-svg .node.clickable{cursor:pointer;}#my-svg .root .anchor path{fill:#111111!important;stroke-width:0;stroke:#111111;}#my-svg .arrowheadPath{fill:#0b0b0b;}#my-svg .edgePath .path{stroke:#111111;stroke-width:2.0px;}#my-svg .flowchart-link{stroke:#111111;fill:none;}#my-svg .edgeLabel{background-color:#f4f4f0;text-align:center;}#my-svg .edgeLabel p{background-color:#f4f4f0;}#my-svg .edgeLabel rect{opacity:0.5;background-color:#f4f4f0;fill:#f4f4f0;}#my-svg .labelBkg{background-color:rgba(244, 244, 240, 0.5);}#my-svg .cluster rect{fill:#ebebe6;stroke:#d1d1c7;stroke-width:1px;}#my-svg .cluster text{fill:#0b0b0f;}#my-svg .cluster span{color:#0b0b0f;}#my-svg div.mermaidTooltip{position:absolute;text-align:center;max-width:200px;padding:2px;font-family:"B612 Mono",monospace;font-size:12px;background:#f4f4f0;border:1px solid hsl(60, 0%, 84.9019607843%);border-radius:2px;pointer-events:none;z-index:100;}#my-svg .flowchartTitleText{text-anchor:middle;font-size:18px;fill:#111111;}#my-svg rect.text{fill:none;stroke-width:0;}#my-svg .icon-shape,#my-svg .image-shape{background-color:#f4f4f0;text-align:center;}#my-svg .icon-shape p,#my-svg .image-shape p{background-color:#f4f4f0;padding:2px;}#my-svg .icon-shape rect,#my-svg .image-shape rect{opacity:0.5;background-color:#f4f4f0;fill:#f4f4f0;}#my-svg .label-icon{display:inline-block;height:1em;overflow:visible;vertical-align:-0.125em;}#my-svg .node .label-icon path{fill:currentColor;stroke:revert;stroke-width:revert;}#my-svg .edgePath .path{stroke-width:3px;}#my-svg .cluster rect{rx:4px;ry:4px;}#my-svg .edgeLabel{color:#111111!important;}#my-svg .edgeLabel span,#my-svg .edgeLabel p{color:#111111!important;}#my-svg :root{--mermaid-font-family:"trebuchet ms",verdana,arial,sans-serif;}</style><g><marker id="my-svg_flowchart-v2-pointEnd" class="marker flowchart-v2" viewBox="0 0 10 10" refX="5" refY="5" markerUnits="userSpaceOnUse" markerWidth="8" markerHeight="8" orient="auto"><path d="M 0 0 L 10 5 L 0 10 z" class="arrowMarkerPath" style="stroke-width: 1; stroke-dasharray: 1, 0;"/></marker><marker id="my-svg_flowchart-v2-pointStart" class="marker flowchart-v2" viewBox="0 0 10 10" refX="4.5" refY="5" markerUnits="userSpaceOnUse" markerWidth="8" markerHeight="8" orient="auto"><path d="M 0 5 L 10 10 L 10 0 z" class="arrowMarkerPath" style="stroke-width: 1; stroke-dasharray: 1, 0;"/></marker><marker id="my-svg_flowchart-v2-circleEnd" class="marker flowchart-v2" viewBox="0 0 10 10" refX="11" refY="5" markerUnits="userSpaceOnUse" markerWidth="11" markerHeight="11" orient="auto"><circle cx="5" cy="5" r="5" class="arrowMarkerPath" style="stroke-width: 1; stroke-dasharray: 1, 0;"/></marker><marker id="my-svg_flowchart-v2-circleStart" class="marker flowchart-v2" viewBox="0 0 10 10" refX="-1" refY="5" markerUnits="userSpaceOnUse" markerWidth="11" markerHeight="11" orient="auto"><circle cx="5" cy="5" r="5" class="arrowMarkerPath" style="stroke-width: 1; stroke-dasharray: 1, 0;"/></marker><marker id="my-svg_flowchart-v2-crossEnd" class="marker cross flowchart-v2" viewBox="0 0 11 11" refX="12" refY="5.2" markerUnits="userSpaceOnUse" markerWidth="11" markerHeight="11" orient="auto"><path d="M 1,1 l 9,9 M 10,1 l -9,9" class="arrowMarkerPath" style="stroke-width: 2; stroke-dasharray: 1, 0;"/></marker><marker id="my-svg_flowchart-v2-crossStart" class="marker cross flowchart-v2" viewBox="0 0 11 11" refX="-1" refY="5.2" markerUnits="userSpaceOnUse" markerWidth="11" markerHeight="11" orient="auto"><path d="M 1,1 l 9,9 M 10,1 l -9,9" class="arrowMarkerPath" style="stroke-width: 2; stroke-dasharray: 1, 0;"/></marker><g class="root"><g class="clusters"/><g class="edgePaths"><path d="M96.906,59.086L101.073,59.086C105.24,59.086,113.573,59.086,121.24,59.086C128.906,59.086,135.906,59.086,139.406,59.086L142.906,59.086" id="L_PBI_Spec_0" class="edge-thickness-normal edge-pattern-solid edge-thickness-normal edge-pattern-solid flowchart-link" style=";" data-edge="true" data-et="edge" data-id="L_PBI_Spec_0" data-points="W3sieCI6OTYuOTA2MjUsInkiOjU5LjA4NTkzNzV9LHsieCI6MTIxLjkwNjI1LCJ5Ijo1OS4wODU5Mzc1fSx7IngiOjE0Ni45MDYyNSwieSI6NTkuMDg1OTM3NX1d" marker-end="url(#my-svg_flowchart-v2-pointEnd)"/><path d="M245.438,59.086L249.604,59.086C253.771,59.086,262.104,59.086,269.771,59.086C277.438,59.086,284.438,59.086,287.938,59.086L291.438,59.086" id="L_Spec_Code_0" class="edge-thickness-normal edge-pattern-solid edge-thickness-normal edge-pattern-solid flowchart-link" style=";" data-edge="true" data-et="edge" data-id="L_Spec_Code_0" data-points="W3sieCI6MjQ1LjQzNzUsInkiOjU5LjA4NTkzNzV9LHsieCI6MjcwLjQzNzUsInkiOjU5LjA4NTkzNzV9LHsieCI6Mjk1LjQzNzUsInkiOjU5LjA4NTkzNzV9XQ==" marker-end="url(#my-svg_flowchart-v2-pointEnd)"/><path d="M490.297,48.084L497.674,47.251C505.052,46.418,519.807,44.752,535.128,45.252C550.45,45.752,566.337,48.418,574.28,49.751L582.224,51.084" id="L_Code_Gates_0" class="edge-thickness-normal edge-pattern-solid edge-thickness-normal edge-pattern-solid flowchart-link" style=";" data-edge="true" data-et="edge" data-id="L_Code_Gates_0" data-points="W3sieCI6NDkwLjI5Njg3NSwieSI6NDguMDg0MzM4NTU4NjA5NDc0fSx7IngiOjUzNC41NjI1LCJ5Ijo0My4wODU5Mzc1fSx7IngiOjU4Ni4xNjg2MTQ3MjE0NjIyLCJ5Ijo1MS43NDU0NDc3Nzg1Mzc4NX1d" marker-end="url(#my-svg_flowchart-v2-pointEnd)"/><path d="M681,59.086L688.378,59.086C695.755,59.086,710.51,59.086,724.599,59.086C738.688,59.086,752.109,59.086,758.82,59.086L765.531,59.086" id="L_Gates_Merge_0" class="edge-thickness-normal edge-pattern-solid edge-thickness-normal edge-pattern-solid flowchart-link" style=";" data-edge="true" data-et="edge" data-id="L_Gates_Merge_0" data-points="W3sieCI6NjgxLCJ5Ijo1OS4wODU5Mzc1fSx7IngiOjcyNS4yNjU2MjUsInkiOjU5LjA4NTkzNzV9LHsieCI6NzY5LjUzMTI1LCJ5Ijo1OS4wODU5Mzc1fV0=" marker-end="url(#my-svg_flowchart-v2-pointEnd)"/><path d="M586.169,66.426L577.568,67.87C568.967,69.313,551.765,72.199,536.448,72.884C521.132,73.569,507.702,72.053,500.987,71.295L494.272,70.536" id="L_Gates_Code_0" class="edge-thickness-normal edge-pattern-solid edge-thickness-normal edge-pattern-solid flowchart-link" style=";" data-edge="true" data-et="edge" data-id="L_Gates_Code_0" data-points="W3sieCI6NTg2LjE2ODYxNDcyMTQ2MjIsInkiOjY2LjQyNjQyNzIyMTQ2MjE1fSx7IngiOjUzNC41NjI1LCJ5Ijo3NS4wODU5Mzc1fSx7IngiOjQ5MC4yOTY4NzUsInkiOjcwLjA4NzUzNjQ0MTM5MDUzfV0=" marker-end="url(#my-svg_flowchart-v2-pointEnd)"/><path d="M877.703,59.086L881.87,59.086C886.036,59.086,894.37,59.086,902.12,59.156C909.87,59.226,917.037,59.367,920.62,59.437L924.204,59.508" id="L_Merge_Done_0" class="edge-thickness-normal edge-pattern-solid edge-thickness-normal edge-pattern-solid flowchart-link" style=";" data-edge="true" data-et="edge" data-id="L_Merge_Done_0" data-points="W3sieCI6ODc3LjcwMzEyNSwieSI6NTkuMDg1OTM3NX0seyJ4Ijo5MDIuNzAzMTI1LCJ5Ijo1OS4wODU5Mzc1fSx7IngiOjkyOC4yMDMxMjQ5OTk5OTgxLCJ5Ijo1OS41ODU5Mzc1MDAwMDAwMX1d" marker-end="url(#my-svg_flowchart-v2-pointEnd)"/></g><g class="edgeLabels"><g class="edgeLabel"><g class="label" data-id="L_PBI_Spec_0" transform="translate(0, 0)"><foreignObject width="0" height="0"><div xmlns="http://www.w3.org/1999/xhtml" class="labelBkg" style="display: table-cell; white-space: nowrap; line-height: 1.5; max-width: 200px; text-align: center;"><span class="edgeLabel"></span></div></foreignObject></g></g><g class="edgeLabel"><g class="label" data-id="L_Spec_Code_0" transform="translate(0, 0)"><foreignObject width="0" height="0"><div xmlns="http://www.w3.org/1999/xhtml" class="labelBkg" style="display: table-cell; white-space: nowrap; line-height: 1.5; max-width: 200px; text-align: center;"><span class="edgeLabel"></span></div></foreignObject></g></g><g class="edgeLabel"><g class="label" data-id="L_Code_Gates_0" transform="translate(0, 0)"><foreignObject width="0" height="0"><div xmlns="http://www.w3.org/1999/xhtml" class="labelBkg" style="display: table-cell; white-space: nowrap; line-height: 1.5; max-width: 200px; text-align: center;"><span class="edgeLabel"></span></div></foreignObject></g></g><g class="edgeLabel" transform="translate(725.265625, 59.0859375)"><g class="label" data-id="L_Gates_Merge_0" transform="translate(-19.265625, -12)"><foreignObject width="38.53125" height="24"><div xmlns="http://www.w3.org/1999/xhtml" class="labelBkg" style="display: table-cell; white-space: nowrap; line-height: 1.5; max-width: 200px; text-align: center;"><span class="edgeLabel"><p>PASS</p></span></div></foreignObject></g></g><g class="edgeLabel" transform="translate(538.39919, 74.44214)"><g class="label" data-id="L_Gates_Code_0" transform="translate(-19.265625, -12)"><foreignObject width="38.53125" height="24"><div xmlns="http://www.w3.org/1999/xhtml" class="labelBkg" style="display: table-cell; white-space: nowrap; line-height: 1.5; max-width: 200px; text-align: center;"><span class="edgeLabel"><p>FAIL</p></span></div></foreignObject></g></g><g class="edgeLabel"><g class="label" data-id="L_Merge_Done_0" transform="translate(0, 0)"><foreignObject width="0" height="0"><div xmlns="http://www.w3.org/1999/xhtml" class="labelBkg" style="display: table-cell; white-space: nowrap; line-height: 1.5; max-width: 200px; text-align: center;"><span class="edgeLabel"></span></div></foreignObject></g></g></g><g class="nodes"><g class="node default" id="flowchart-PBI-0" transform="translate(52.453125, 59.0859375)"><rect class="basic label-container" style="" x="-44.453125" y="-27" width="88.90625" height="54"/><g class="label" style="" transform="translate(-14.453125, -12)"><rect/><foreignObject width="28.90625" height="24"><div xmlns="http://www.w3.org/1999/xhtml" style="display: table-cell; white-space: nowrap; line-height: 1.5; max-width: 200px; text-align: center;"><span class="nodeLabel"><p>PBI</p></span></div></foreignObject></g></g><g class="node default" id="flowchart-Spec-1" transform="translate(196.171875, 59.0859375)"><rect class="basic label-container" style="" x="-49.265625" y="-27" width="98.53125" height="54"/><g class="label" style="" transform="translate(-19.265625, -12)"><rect/><foreignObject width="38.53125" height="24"><div xmlns="http://www.w3.org/1999/xhtml" style="display: table-cell; white-space: nowrap; line-height: 1.5; max-width: 200px; text-align: center;"><span class="nodeLabel"><p>Spec</p></span></div></foreignObject></g></g><g class="node default" id="flowchart-Code-3" transform="translate(392.8671875, 59.0859375)"><rect class="basic label-container" style="" x="-97.4296875" y="-27" width="194.859375" height="54"/><g class="label" style="" transform="translate(-67.4296875, -12)"><rect/><foreignObject width="134.859375" height="24"><div xmlns="http://www.w3.org/1999/xhtml" style="display: table-cell; white-space: nowrap; line-height: 1.5; max-width: 200px; text-align: center;"><span class="nodeLabel"><p>Implementation</p></span></div></foreignObject></g></g><g class="node default" id="flowchart-Gates-5" transform="translate(629.9140625, 59.0859375)"><polygon points="51.0859375,0 102.171875,-51.0859375 51.0859375,-102.171875 0,-51.0859375" class="label-container" transform="translate(-50.5859375, 51.0859375)"/><g class="label" style="" transform="translate(-24.0859375, -12)"><rect/><foreignObject width="48.171875" height="24"><div xmlns="http://www.w3.org/1999/xhtml" style="display: table-cell; white-space: nowrap; line-height: 1.5; max-width: 200px; text-align: center;"><span class="nodeLabel"><p>Gates</p></span></div></foreignObject></g></g><g class="node default" id="flowchart-Merge-7" transform="translate(823.6171875, 59.0859375)"><rect class="basic label-container" style="" x="-54.0859375" y="-27" width="108.171875" height="54"/><g class="label" style="" transform="translate(-24.0859375, -12)"><rect/><foreignObject width="48.171875" height="24"><div xmlns="http://www.w3.org/1999/xhtml" style="display: table-cell; white-space: nowrap; line-height: 1.5; max-width: 200px; text-align: center;"><span class="nodeLabel"><p>Merge</p></span></div></foreignObject></g></g><g class="node default" id="flowchart-Done-11" transform="translate(959.3337306976318, 59.0859375)"><g class="basic label-container outer-path"><path d="M-12.140625 -19.5 C-6.497896851837901 -19.5, -0.8551687036758029 -19.5, 12.140625 -19.5 C12.140625 -19.5, 12.140624999999998 -19.5, 12.140624999999998 -19.5 C12.399788044484763 -19.49168914559364, 12.658951088969529 -19.483378291187275, 13.3899942896239 -19.45993515863156 C13.815194386638584 -19.418916616650485, 14.240394483653269 -19.377898074669414, 14.634229652847864 -19.3399052695533 C15.010589286481867 -19.279058362699903, 15.386948920115872 -19.218211455846507, 15.868218259676757 -19.140403561325776 C16.218403928391414 -19.060475967616703, 16.568589597106072 -18.98054837390763, 17.08688938623539 -18.862249829261074 C17.37511205826903 -18.77670685311317, 17.663334730302665 -18.691163876965266, 18.285235251460602 -18.50658706670804 C18.697014119411662 -18.35504863685992, 19.10879298736272 -18.203510207011803, 19.458331595147794 -18.074876768247425 C19.754609595661737 -17.943723286194523, 20.050887596175677 -17.81256980414162, 20.60135791279238 -17.568892924097174 C21.019890909659185 -17.35054452771494, 21.43842390652599 -17.13219613133271, 21.709617264076783 -16.990714730406097 C22.09514865523696 -16.75700333545086, 22.48068004639714 -16.52329194049562, 22.778555573605697 -16.342718045390892 C23.10398381498092 -16.115713391769056, 23.429412056356142 -15.888708738147217, 23.803780344578712 -15.627565626425154 C24.025921257992316 -15.450414159395773, 24.248062171405923 -15.273262692366393, 24.78107870850187 -14.848196188198123 C24.97943644409069 -14.668052940994444, 25.177794179679513 -14.487909693790765, 25.706434736767985 -14.007812326905688 C26.051827588946782 -13.65116584975054, 26.39722044112558 -13.294519372595396, 26.576045942968648 -13.10986736009568 C26.821993726240354 -12.820963099039412, 27.06794150951206 -12.532058837983145, 27.386338908126582 -12.158051136245305 C27.618745699664473 -11.846647208278803, 27.851152491202363 -11.535243280312303, 28.133983964640635 -11.156274872382312 C28.35065663921971 -10.82340745946909, 28.56732931379879 -10.49054004655587, 28.815908878604247 -10.108655082055241 C28.968838552531093 -9.83711296018942, 29.121768226457935 -9.565570838323602, 29.4293114742735 -9.019496659696287 C29.62736783624183 -8.608228386341773, 29.82542419821016 -8.19696011298726, 29.97167114880834 -7.893275190886684 C30.142325265055348 -7.471756224383693, 30.312979381302355 -7.050237257880702, 30.440759229970325 -6.734618561215508 C30.559886299631483 -6.375826807717071, 30.67901336929264 -6.017035054218635, 30.83464813421488 -5.548287939305138 C30.933871106319323 -5.1699077431627645, 31.033094078423765 -4.79152754702039, 31.15171928754556 -4.339158212148133 C31.209125935690206 -4.04438720682476, 31.266532583834852 -3.7496162015013867, 31.390669776581777 -3.1121979531509023 C31.43682427854822 -2.7542327501364774, 31.482978780514664 -2.3962675471220525, 31.550517702509367 -1.872449005199798 C31.578259952947136 -1.4403410614900463, 31.606002203384904 -1.0082331177802946, 31.630606215913414 -0.6250057626472757 C31.630606215913414 -0.22555220578170837, 31.630606215913414 0.17390135108385896, 31.630606215913414 0.625005762647271 C31.605557734763842 1.015156075321929, 31.58050925361427 1.405306387996587, 31.550517702509367 1.8724490051997846 C31.506807915483787 2.2114534818964424, 31.46309812845821 2.5504579585931006, 31.390669776581777 3.1121979531508885 C31.324224165589257 3.453382122312618, 31.25777855459674 3.7945662914743483, 31.15171928754556 4.339158212148129 C31.049823674420924 4.72773034683045, 30.947928061296288 5.11630248151277, 30.834648134214884 5.548287939305125 C30.72797962562065 5.869556491872124, 30.621311117026416 6.190825044439123, 30.44075922997033 6.734618561215495 C30.324495523870993 7.021792163086698, 30.208231817771654 7.308965764957903, 29.971671148808344 7.893275190886679 C29.83166254874664 8.184006044618952, 29.69165394868493 8.474736898351225, 29.429311474273504 9.019496659696284 C29.229737343640704 9.373860737706943, 29.030163213007903 9.728224815717603, 28.81590887860425 10.108655082055236 C28.546488031844763 10.522557852305065, 28.27706718508528 10.936460622554893, 28.13398396464064 11.156274872382301 C27.86675397359118 11.51433871523557, 27.599523982541715 11.87240255808884, 27.386338908126582 12.158051136245302 C27.140785504104702 12.446492136993912, 26.89523210008282 12.734933137742523, 26.57604594296866 13.10986736009567 C26.325236523189318 13.36884867785416, 26.074427103409974 13.627829995612652, 25.70643473676799 14.007812326905684 C25.400576991716413 14.28558423840905, 25.094719246664837 14.563356149912417, 24.781078708501887 14.848196188198111 C24.443371054445496 15.117509055529988, 24.105663400389105 15.386821922861865, 23.803780344578715 15.627565626425152 C23.568606127149682 15.791612979975856, 23.333431909720648 15.95566033352656, 22.778555573605708 16.34271804539089 C22.516913046781283 16.501327282734014, 22.255270519956856 16.659936520077135, 21.709617264076787 16.990714730406093 C21.41140646310599 17.146291114259423, 21.113195662135194 17.301867498112752, 20.601357912792388 17.56889292409717 C20.315498959894057 17.69543420284071, 20.02964000699573 17.821975481584243, 19.458331595147804 18.07487676824742 C19.074988421512995 18.215950599730483, 18.69164524787819 18.357024431213542, 18.285235251460616 18.506587066708033 C17.86673650833729 18.630795296922308, 17.44823776521396 18.755003527136584, 17.086889386235413 18.86224982926107 C16.833959276367665 18.919979476315167, 16.581029166499917 18.977709123369266, 15.868218259676766 19.140403561325773 C15.536449469746584 19.194041366376293, 15.204680679816402 19.247679171426814, 14.634229652847878 19.3399052695533 C14.180910703476531 19.38363640340335, 13.727591754105182 19.427367537253403, 13.3899942896239 19.45993515863156 C12.966137666706503 19.473527415541653, 12.542281043789108 19.487119672451744, 12.140625000000004 19.5 C12.140625000000002 19.5, 12.140625000000002 19.5, 12.140625 19.5 C5.760574535637588 19.5, -0.6194759287248246 19.5, -12.140624999999996 19.5 C-12.454166992690311 19.48994531856689, -12.767708985380628 19.479890637133774, -13.389994289623893 19.45993515863156 C-13.63947856119141 19.435867711002174, -13.888962832758928 19.411800263372793, -14.634229652847871 19.3399052695533 C-15.033193728889811 19.275403851751456, -15.432157804931752 19.210902433949613, -15.868218259676759 19.140403561325773 C-16.196757148158994 19.06541670394631, -16.52529603664123 18.990429846566848, -17.086889386235388 18.862249829261074 C-17.55572906443919 18.723100673759877, -18.024568742642998 18.58395151825868, -18.28523525146059 18.506587066708043 C-18.706627779166666 18.351510721202384, -19.12802030687274 18.19643437569672, -19.458331595147797 18.074876768247425 C-19.865486981779128 17.89464115642115, -20.272642368410455 17.714405544594882, -20.60135791279238 17.568892924097174 C-20.849779795938097 17.439291386781864, -21.09820167908381 17.309689849466555, -21.70961726407678 16.990714730406097 C-22.0603637766967 16.778090133240603, -22.41111028931662 16.565465536075106, -22.778555573605686 16.3427180453909 C-23.170277194460226 16.069470000038436, -23.561998815314766 15.796221954685974, -23.803780344578712 15.627565626425156 C-24.007671028511698 15.464968231747568, -24.21156171244468 15.302370837069978, -24.78107870850187 14.848196188198125 C-25.018433731722656 14.632636636178782, -25.255788754943445 14.417077084159441, -25.706434736767974 14.007812326905697 C-25.948501690838746 13.75785832276109, -26.19056864490952 13.50790431861648, -26.576045942968655 13.109867360095677 C-26.86670996859082 12.76843685634829, -27.15737399421298 12.427006352600902, -27.38633890812658 12.158051136245307 C-27.559423214745387 11.926133933680822, -27.732507521364195 11.694216731116336, -28.133983964640635 11.156274872382316 C-28.28741634036623 10.920561540906041, -28.44084871609183 10.684848209429767, -28.815908878604244 10.108655082055249 C-28.98894279490913 9.801415842071926, -29.161976711214013 9.494176602088602, -29.4293114742735 9.019496659696289 C-29.54155297178204 8.78642478853649, -29.653794469290577 8.55335291737669, -29.97167114880834 7.893275190886686 C-30.157905994212626 7.433271522132313, -30.344140839616912 6.973267853377939, -30.440759229970325 6.73461856121551 C-30.586002420752358 6.297169211939819, -30.73124561153439 5.859719862664127, -30.83464813421488 5.5482879393051325 C-30.910870334570028 5.257619654440354, -30.987092534925175 4.966951369575577, -31.151719287545557 4.339158212148136 C-31.24638048859655 3.8530929514032244, -31.341041689647543 3.367027690658313, -31.390669776581777 3.112197953150904 C-31.45451999060617 2.616988301828607, -31.51837020463056 2.1217786505063105, -31.550517702509364 1.872449005199809 C-31.57242263956883 1.5312619291516798, -31.594327576628295 1.1900748531035503, -31.630606215913414 0.6250057626472781 C-31.630606215913414 0.15418220141140898, -31.630606215913414 -0.3166413598244602, -31.630606215913414 -0.6250057626472687 C-31.60753027358998 -0.9844321909001691, -31.584454331266542 -1.3438586191530695, -31.550517702509367 -1.8724490051997822 C-31.492590700314466 -2.321719395243006, -31.434663698119568 -2.7709897852862304, -31.390669776581777 -3.112197953150895 C-31.305849990137855 -3.5477296298722294, -31.221030203693932 -3.9832613065935636, -31.15171928754556 -4.339158212148126 C-31.051089668782605 -4.722902561643933, -30.95046005001965 -5.106646911139739, -30.834648134214884 -5.548287939305123 C-30.68281578063346 -6.005582797092055, -30.53098342705204 -6.462877654878988, -30.440759229970332 -6.734618561215485 C-30.28563392155941 -7.1177810721342745, -30.130508613148486 -7.500943583053063, -29.971671148808344 -7.893275190886676 C-29.768842051523695 -8.314454151245704, -29.566012954239046 -8.735633111604733, -29.429311474273504 -9.019496659696282 C-29.28424054528359 -9.277084784142364, -29.139169616293678 -9.534672908588446, -28.815908878604247 -10.108655082055243 C-28.586663792193864 -10.460837095706639, -28.357418705783477 -10.813019109358034, -28.13398396464064 -11.156274872382308 C-27.948998708057214 -11.404138263700538, -27.764013451473787 -11.652001655018767, -27.386338908126586 -12.158051136245302 C-27.218264689950402 -12.355480676608991, -27.050190471774215 -12.55291021697268, -26.576045942968662 -13.10986736009567 C-26.23787141592784 -13.459060323910338, -25.89969688888702 -13.808253287725007, -25.706434736767996 -14.007812326905677 C-25.409271411783315 -14.277688196146036, -25.11210808679864 -14.547564065386394, -24.781078708501887 -14.848196188198107 C-24.515929845567793 -15.059645350480476, -24.2507809826337 -15.271094512762843, -23.80378034457872 -15.627565626425149 C-23.461113583695216 -15.866595125012482, -23.118446822811713 -16.105624623599816, -22.77855557360571 -16.342718045390885 C-22.481211339536877 -16.52296986747209, -22.183867105468043 -16.703221689553292, -21.70961726407679 -16.99071473040609 C-21.38951158174956 -17.15771365983873, -21.069405899422325 -17.324712589271375, -20.601357912792388 -17.56889292409717 C-20.323485025762544 -17.691899008378957, -20.0456121387327 -17.81490509266074, -19.458331595147804 -18.07487676824742 C-19.02324972788587 -18.234990917252507, -18.588167860623937 -18.39510506625759, -18.28523525146062 -18.506587066708033 C-17.812901812336623 -18.64677315211122, -17.340568373212623 -18.786959237514406, -17.086889386235413 -18.862249829261067 C-16.63799882995748 -18.96470616944687, -16.18910827367954 -19.067162509632674, -15.868218259676768 -19.140403561325773 C-15.386962817993728 -19.218209208945396, -14.905707376310689 -19.29601485656502, -14.63422965284788 -19.3399052695533 C-14.290688229530206 -19.373046297491744, -13.94714680621253 -19.406187325430192, -13.389994289623903 -19.45993515863156 C-12.99922608027697 -19.472466334521137, -12.608457870930035 -19.484997510410714, -12.140625000000005 -19.5 C-12.140625000000004 -19.5, -12.140625000000002 -19.5, -12.140625 -19.5" stroke="none" stroke-width="0" fill="#f04e30" style=""/><path d="M-12.140625 -19.5 C-6.093521459427688 -19.5, -0.04641791885537572 -19.5, 12.140625 -19.5 M-12.140625 -19.5 C-3.183140002001629 -19.5, 5.774344995996742 -19.5, 12.140625 -19.5 M12.140625 -19.5 C12.140625 -19.5, 12.140624999999998 -19.5, 12.140624999999998 -19.5 M12.140625 -19.5 C12.140625 -19.5, 12.140624999999998 -19.5, 12.140624999999998 -19.5 M12.140624999999998 -19.5 C12.563592387276762 -19.48643625914611, 12.986559774553527 -19.47287251829222, 13.3899942896239 -19.45993515863156 M12.140624999999998 -19.5 C12.566495199187466 -19.486343171618113, 12.992365398374936 -19.47268634323623, 13.3899942896239 -19.45993515863156 M13.3899942896239 -19.45993515863156 C13.754415052735718 -19.424779925894253, 14.118835815847536 -19.389624693156943, 14.634229652847864 -19.3399052695533 M13.3899942896239 -19.45993515863156 C13.820794835273755 -19.418376348106175, 14.25159538092361 -19.37681753758079, 14.634229652847864 -19.3399052695533 M14.634229652847864 -19.3399052695533 C15.025771045141251 -19.27660389369615, 15.417312437434637 -19.213302517839004, 15.868218259676757 -19.140403561325776 M14.634229652847864 -19.3399052695533 C15.10710394541726 -19.26345462112559, 15.579978237986655 -19.187003972697877, 15.868218259676757 -19.140403561325776 M15.868218259676757 -19.140403561325776 C16.18735738977644 -19.067562137457973, 16.506496519876123 -18.994720713590173, 17.08688938623539 -18.862249829261074 M15.868218259676757 -19.140403561325776 C16.24671399246678 -19.054014380231937, 16.625209725256802 -18.967625199138094, 17.08688938623539 -18.862249829261074 M17.08688938623539 -18.862249829261074 C17.432995378015576 -18.759527387648138, 17.779101369795764 -18.656804946035205, 18.285235251460602 -18.50658706670804 M17.08688938623539 -18.862249829261074 C17.530018755277535 -18.730731358562892, 17.97314812431968 -18.599212887864706, 18.285235251460602 -18.50658706670804 M18.285235251460602 -18.50658706670804 C18.638355760417898 -18.37663545520155, 18.991476269375198 -18.246683843695063, 19.458331595147794 -18.074876768247425 M18.285235251460602 -18.50658706670804 C18.58028542940559 -18.398005873810337, 18.87533560735058 -18.289424680912635, 19.458331595147794 -18.074876768247425 M19.458331595147794 -18.074876768247425 C19.859874999865536 -17.89712541434077, 20.26141840458328 -17.719374060434113, 20.60135791279238 -17.568892924097174 M19.458331595147794 -18.074876768247425 C19.895345305664293 -17.881423762152895, 20.332359016180796 -17.68797075605837, 20.60135791279238 -17.568892924097174 M20.60135791279238 -17.568892924097174 C20.919706169010894 -17.402810842739765, 21.23805442522941 -17.236728761382356, 21.709617264076783 -16.990714730406097 M20.60135791279238 -17.568892924097174 C20.8574301651836 -17.43530019404678, 21.113502417574825 -17.301707463996387, 21.709617264076783 -16.990714730406097 M21.709617264076783 -16.990714730406097 C22.108359664331836 -16.74899474410104, 22.507102064586892 -16.50727475779598, 22.778555573605697 -16.342718045390892 M21.709617264076783 -16.990714730406097 C22.028733399044114 -16.797264654054334, 22.34784953401144 -16.60381457770257, 22.778555573605697 -16.342718045390892 M22.778555573605697 -16.342718045390892 C23.087200837189062 -16.127420470553258, 23.395846100772427 -15.912122895715619, 23.803780344578712 -15.627565626425154 M22.778555573605697 -16.342718045390892 C23.084151824246263 -16.12954732999251, 23.38974807488683 -15.916376614594128, 23.803780344578712 -15.627565626425154 M23.803780344578712 -15.627565626425154 C24.179222623049657 -15.328160400283197, 24.554664901520606 -15.028755174141239, 24.78107870850187 -14.848196188198123 M23.803780344578712 -15.627565626425154 C24.09997130829174 -15.39136121483658, 24.396162272004766 -15.155156803248007, 24.78107870850187 -14.848196188198123 M24.78107870850187 -14.848196188198123 C25.065927038958954 -14.589504471150827, 25.350775369416038 -14.33081275410353, 25.706434736767985 -14.007812326905688 M24.78107870850187 -14.848196188198123 C25.013885501597915 -14.636767218438498, 25.24669229469396 -14.425338248678873, 25.706434736767985 -14.007812326905688 M25.706434736767985 -14.007812326905688 C25.947868637486085 -13.75851200232236, 26.189302538204185 -13.509211677739032, 26.576045942968648 -13.10986736009568 M25.706434736767985 -14.007812326905688 C26.048801474230068 -13.654290561644187, 26.391168211692154 -13.300768796382686, 26.576045942968648 -13.10986736009568 M26.576045942968648 -13.10986736009568 C26.808686173929704 -12.83659490720468, 27.04132640489076 -12.563322454313678, 27.386338908126582 -12.158051136245305 M26.576045942968648 -13.10986736009568 C26.798614082161876 -12.848426159313426, 27.021182221355105 -12.586984958531172, 27.386338908126582 -12.158051136245305 M27.386338908126582 -12.158051136245305 C27.68127066102546 -11.762869456196238, 27.97620241392434 -11.36768777614717, 28.133983964640635 -11.156274872382312 M27.386338908126582 -12.158051136245305 C27.574178556682952 -11.906363119723789, 27.762018205239325 -11.65467510320227, 28.133983964640635 -11.156274872382312 M28.133983964640635 -11.156274872382312 C28.382512427398453 -10.77446841434968, 28.63104089015627 -10.392661956317049, 28.815908878604247 -10.108655082055241 M28.133983964640635 -11.156274872382312 C28.285286613558895 -10.92383337319383, 28.436589262477156 -10.691391874005348, 28.815908878604247 -10.108655082055241 M28.815908878604247 -10.108655082055241 C28.967037663802582 -9.84031062048665, 29.118166449000913 -9.571966158918057, 29.4293114742735 -9.019496659696287 M28.815908878604247 -10.108655082055241 C29.00722428749925 -9.768955200776306, 29.198539696394246 -9.429255319497372, 29.4293114742735 -9.019496659696287 M29.4293114742735 -9.019496659696287 C29.562917390851954 -8.742061115212472, 29.696523307430404 -8.464625570728657, 29.97167114880834 -7.893275190886684 M29.4293114742735 -9.019496659696287 C29.561609263487995 -8.744777469673172, 29.69390705270249 -8.47005827965006, 29.97167114880834 -7.893275190886684 M29.97167114880834 -7.893275190886684 C30.1319438095335 -7.497398620234444, 30.292216470258662 -7.101522049582204, 30.440759229970325 -6.734618561215508 M29.97167114880834 -7.893275190886684 C30.139325546478823 -7.479165587263325, 30.306979944149305 -7.065055983639966, 30.440759229970325 -6.734618561215508 M30.440759229970325 -6.734618561215508 C30.528504339216152 -6.470344272451678, 30.61624944846198 -6.206069983687849, 30.83464813421488 -5.548287939305138 M30.440759229970325 -6.734618561215508 C30.52208444866999 -6.489679959906063, 30.603409667369657 -6.244741358596617, 30.83464813421488 -5.548287939305138 M30.83464813421488 -5.548287939305138 C30.913783525644075 -5.246510394290025, 30.99291891707327 -4.944732849274913, 31.15171928754556 -4.339158212148133 M30.83464813421488 -5.548287939305138 C30.90165538904172 -5.292760235522454, 30.96866264386856 -5.037232531739771, 31.15171928754556 -4.339158212148133 M31.15171928754556 -4.339158212148133 C31.22802324457502 -3.947353519648892, 31.30432720160448 -3.555548827149651, 31.390669776581777 -3.1121979531509023 M31.15171928754556 -4.339158212148133 C31.200440995317766 -4.088982540074444, 31.249162703089972 -3.8388068680007565, 31.390669776581777 -3.1121979531509023 M31.390669776581777 -3.1121979531509023 C31.426101262354972 -2.8373983462322654, 31.461532748128164 -2.562598739313628, 31.550517702509367 -1.872449005199798 M31.390669776581777 -3.1121979531509023 C31.453789850044767 -2.622651127840297, 31.516909923507754 -2.1331043025296914, 31.550517702509367 -1.872449005199798 M31.550517702509367 -1.872449005199798 C31.572462309839015 -1.530644032672325, 31.594406917168662 -1.1888390601448517, 31.630606215913414 -0.6250057626472757 M31.550517702509367 -1.872449005199798 C31.568804852581234 -1.5876118817086156, 31.5870920026531 -1.3027747582174332, 31.630606215913414 -0.6250057626472757 M31.630606215913414 -0.6250057626472757 C31.630606215913414 -0.13145011435096177, 31.630606215913414 0.36210553394535216, 31.630606215913414 0.625005762647271 M31.630606215913414 -0.6250057626472757 C31.630606215913414 -0.27963791580379704, 31.630606215913414 0.06572993103968161, 31.630606215913414 0.625005762647271 M31.630606215913414 0.625005762647271 C31.600585347232027 1.092605024768927, 31.57056447855064 1.560204286890583, 31.550517702509367 1.8724490051997846 M31.630606215913414 0.625005762647271 C31.605656468013407 1.0136182252639174, 31.580706720113398 1.4022306878805635, 31.550517702509367 1.8724490051997846 M31.550517702509367 1.8724490051997846 C31.50817256082933 2.200869562076125, 31.465827419149292 2.5292901189524657, 31.390669776581777 3.1121979531508885 M31.550517702509367 1.8724490051997846 C31.5095296824755 2.190343994582408, 31.468541662441634 2.508238983965031, 31.390669776581777 3.1121979531508885 M31.390669776581777 3.1121979531508885 C31.306505590441965 3.5443632608717945, 31.22234140430215 3.9765285685927, 31.15171928754556 4.339158212148129 M31.390669776581777 3.1121979531508885 C31.297175368186927 3.5922719802082272, 31.20368095979208 4.072346007265566, 31.15171928754556 4.339158212148129 M31.15171928754556 4.339158212148129 C31.068417675469373 4.656823362141679, 30.98511606339319 4.9744885121352285, 30.834648134214884 5.548287939305125 M31.15171928754556 4.339158212148129 C31.0631048826315 4.677083343811481, 30.974490477717435 5.015008475474834, 30.834648134214884 5.548287939305125 M30.834648134214884 5.548287939305125 C30.71899772573808 5.89660854324702, 30.603347317261278 6.244929147188916, 30.44075922997033 6.734618561215495 M30.834648134214884 5.548287939305125 C30.677526971234187 6.021511848345334, 30.520405808253486 6.494735757385543, 30.44075922997033 6.734618561215495 M30.44075922997033 6.734618561215495 C30.346040498193805 6.968575659965606, 30.251321766417284 7.2025327587157175, 29.971671148808344 7.893275190886679 M30.44075922997033 6.734618561215495 C30.329115908290056 7.010379724242551, 30.217472586609787 7.286140887269607, 29.971671148808344 7.893275190886679 M29.971671148808344 7.893275190886679 C29.78100814941617 8.28919098865919, 29.590345150023992 8.6851067864317, 29.429311474273504 9.019496659696284 M29.971671148808344 7.893275190886679 C29.807671631567672 8.23382369746447, 29.643672114327 8.57437220404226, 29.429311474273504 9.019496659696284 M29.429311474273504 9.019496659696284 C29.196029221750713 9.433712921440092, 28.96274696922792 9.8479291831839, 28.81590887860425 10.108655082055236 M29.429311474273504 9.019496659696284 C29.22287481242027 9.386045856795464, 29.016438150567033 9.752595053894646, 28.81590887860425 10.108655082055236 M28.81590887860425 10.108655082055236 C28.565750336498702 10.492965779703578, 28.315591794393153 10.87727647735192, 28.13398396464064 11.156274872382301 M28.81590887860425 10.108655082055236 C28.634953570483752 10.386651028632254, 28.453998262363257 10.664646975209273, 28.13398396464064 11.156274872382301 M28.13398396464064 11.156274872382301 C27.96712290296603 11.379853493670842, 27.80026184129142 11.60343211495938, 27.386338908126582 12.158051136245302 M28.13398396464064 11.156274872382301 C27.972617961921802 11.372490615280274, 27.811251959202966 11.588706358178246, 27.386338908126582 12.158051136245302 M27.386338908126582 12.158051136245302 C27.07999843313434 12.517896089438022, 26.7736579581421 12.877741042630744, 26.57604594296866 13.10986736009567 M27.386338908126582 12.158051136245302 C27.16818017621681 12.414312796330025, 26.95002144430704 12.670574456414748, 26.57604594296866 13.10986736009567 M26.57604594296866 13.10986736009567 C26.29528095291442 13.399780263561048, 26.014515962860184 13.689693167026427, 25.70643473676799 14.007812326905684 M26.57604594296866 13.10986736009567 C26.253848537359715 13.442562634285862, 25.931651131750773 13.775257908476053, 25.70643473676799 14.007812326905684 M25.70643473676799 14.007812326905684 C25.446953157569414 14.243466631627461, 25.187471578370843 14.47912093634924, 24.781078708501887 14.848196188198111 M25.70643473676799 14.007812326905684 C25.44255430072505 14.24746155702614, 25.17867386468211 14.487110787146595, 24.781078708501887 14.848196188198111 M24.781078708501887 14.848196188198111 C24.406938595226155 15.146562972248956, 24.032798481950422 15.444929756299802, 23.803780344578715 15.627565626425152 M24.781078708501887 14.848196188198111 C24.40388460892278 15.14899844505591, 24.026690509343673 15.449800701913706, 23.803780344578715 15.627565626425152 M23.803780344578715 15.627565626425152 C23.413842841497207 15.899569148452365, 23.0239053384157 16.171572670479577, 22.778555573605708 16.34271804539089 M23.803780344578715 15.627565626425152 C23.52084309545286 15.824930403259241, 23.237905846327003 16.02229518009333, 22.778555573605708 16.34271804539089 M22.778555573605708 16.34271804539089 C22.560978905388687 16.474614300286476, 22.343402237171663 16.606510555182062, 21.709617264076787 16.990714730406093 M22.778555573605708 16.34271804539089 C22.542283492397818 16.48594756950798, 22.306011411189928 16.62917709362507, 21.709617264076787 16.990714730406093 M21.709617264076787 16.990714730406093 C21.32723564954706 17.19020297377914, 20.944854035017332 17.389691217152183, 20.601357912792388 17.56889292409717 M21.709617264076787 16.990714730406093 C21.316140405756897 17.195991355357624, 20.922663547437008 17.401267980309154, 20.601357912792388 17.56889292409717 M20.601357912792388 17.56889292409717 C20.266652645589545 17.717057017208884, 19.931947378386702 17.865221110320597, 19.458331595147804 18.07487676824742 M20.601357912792388 17.56889292409717 C20.144422519684777 17.771164668119066, 19.687487126577167 17.97343641214096, 19.458331595147804 18.07487676824742 M19.458331595147804 18.07487676824742 C19.02138584790309 18.235676842315687, 18.584440100658377 18.39647691638395, 18.285235251460616 18.506587066708033 M19.458331595147804 18.07487676824742 C19.169333060493017 18.18123090047355, 18.88033452583823 18.28758503269968, 18.285235251460616 18.506587066708033 M18.285235251460616 18.506587066708033 C18.03976653200983 18.579440894149425, 17.79429781255904 18.65229472159082, 17.086889386235413 18.86224982926107 M18.285235251460616 18.506587066708033 C18.017505258259987 18.58604792334657, 17.749775265059355 18.665508779985103, 17.086889386235413 18.86224982926107 M17.086889386235413 18.86224982926107 C16.82125836686286 18.92287837602846, 16.555627347490304 18.983506922795847, 15.868218259676766 19.140403561325773 M17.086889386235413 18.86224982926107 C16.77780457519543 18.93279642041406, 16.46871976415544 19.003343011567047, 15.868218259676766 19.140403561325773 M15.868218259676766 19.140403561325773 C15.601991136783377 19.183445097933003, 15.335764013889989 19.226486634540233, 14.634229652847878 19.3399052695533 M15.868218259676766 19.140403561325773 C15.425440917408164 19.211988368234188, 14.982663575139561 19.283573175142603, 14.634229652847878 19.3399052695533 M14.634229652847878 19.3399052695533 C14.347130433735058 19.367601385933785, 14.060031214622237 19.39529750231427, 13.3899942896239 19.45993515863156 M14.634229652847878 19.3399052695533 C14.15643047951547 19.385997981167097, 13.678631306183059 19.432090692780896, 13.3899942896239 19.45993515863156 M13.3899942896239 19.45993515863156 C12.934605155264084 19.4745386018093, 12.479216020904266 19.48914204498704, 12.140625000000004 19.5 M13.3899942896239 19.45993515863156 C12.898536563398293 19.475695251347183, 12.407078837172687 19.491455344062803, 12.140625000000004 19.5 M12.140625000000004 19.5 C12.140625000000002 19.5, 12.140625000000002 19.5, 12.140625 19.5 M12.140625000000004 19.5 C12.140625000000002 19.5, 12.140625 19.5, 12.140625 19.5 M12.140625 19.5 C2.666479397054184 19.5, -6.807666205891632 19.5, -12.140624999999996 19.5 M12.140625 19.5 C3.4314991557409886 19.5, -5.277626688518023 19.5, -12.140624999999996 19.5 M-12.140624999999996 19.5 C-12.55167503074555 19.486818425574338, -12.962725061491103 19.473636851148676, -13.389994289623893 19.45993515863156 M-12.140624999999996 19.5 C-12.451892373945185 19.490018261162767, -12.763159747890374 19.480036522325534, -13.389994289623893 19.45993515863156 M-13.389994289623893 19.45993515863156 C-13.649026417807747 19.434946640757374, -13.908058545991599 19.409958122883193, -14.634229652847871 19.3399052695533 M-13.389994289623893 19.45993515863156 C-13.740659505065691 19.426106907034512, -14.091324720507489 19.392278655437465, -14.634229652847871 19.3399052695533 M-14.634229652847871 19.3399052695533 C-14.948402200922004 19.289112288425173, -15.262574748996137 19.238319307297044, -15.868218259676759 19.140403561325773 M-14.634229652847871 19.3399052695533 C-15.048365155321001 19.27295105318223, -15.462500657794132 19.205996836811163, -15.868218259676759 19.140403561325773 M-15.868218259676759 19.140403561325773 C-16.120791547159975 19.082755356652463, -16.373364834643187 19.02510715197915, -17.086889386235388 18.862249829261074 M-15.868218259676759 19.140403561325773 C-16.28232478167109 19.045886449978166, -16.696431303665424 18.95136933863056, -17.086889386235388 18.862249829261074 M-17.086889386235388 18.862249829261074 C-17.393746523243692 18.77117624172299, -17.700603660251993 18.68010265418491, -18.28523525146059 18.506587066708043 M-17.086889386235388 18.862249829261074 C-17.338516980328777 18.78756808015435, -17.590144574422165 18.712886331047628, -18.28523525146059 18.506587066708043 M-18.28523525146059 18.506587066708043 C-18.641463109682576 18.37549192194813, -18.997690967904557 18.244396777188218, -19.458331595147797 18.074876768247425 M-18.28523525146059 18.506587066708043 C-18.665967015266894 18.36647425818148, -19.046698779073196 18.226361449654917, -19.458331595147797 18.074876768247425 M-19.458331595147797 18.074876768247425 C-19.84437201497079 17.90398812587397, -20.230412434793784 17.73309948350051, -20.60135791279238 17.568892924097174 M-19.458331595147797 18.074876768247425 C-19.915388249698555 17.87255134538174, -20.372444904249317 17.670225922516057, -20.60135791279238 17.568892924097174 M-20.60135791279238 17.568892924097174 C-20.835526327293877 17.44672741224377, -21.06969474179537 17.32456190039037, -21.70961726407678 16.990714730406097 M-20.60135791279238 17.568892924097174 C-21.004088022037795 17.358788884064786, -21.40681813128321 17.148684844032402, -21.70961726407678 16.990714730406097 M-21.70961726407678 16.990714730406097 C-22.078988664604534 16.766799616738883, -22.448360065132285 16.54288450307167, -22.778555573605686 16.3427180453909 M-21.70961726407678 16.990714730406097 C-21.937604671092675 16.852507424470343, -22.165592078108574 16.714300118534585, -22.778555573605686 16.3427180453909 M-22.778555573605686 16.3427180453909 C-23.01796453436783 16.175716718210104, -23.25737349512998 16.008715391029305, -23.803780344578712 15.627565626425156 M-22.778555573605686 16.3427180453909 C-23.1380669798928 16.091938451362957, -23.497578386179914 15.841158857335015, -23.803780344578712 15.627565626425156 M-23.803780344578712 15.627565626425156 C-24.089393882067892 15.399796430772968, -24.375007419557072 15.17202723512078, -24.78107870850187 14.848196188198125 M-23.803780344578712 15.627565626425156 C-24.07320886303138 15.412703552753142, -24.342637381484046 15.197841479081127, -24.78107870850187 14.848196188198125 M-24.78107870850187 14.848196188198125 C-25.04057885067478 14.612525025074204, -25.30007899284769 14.376853861950282, -25.706434736767974 14.007812326905697 M-24.78107870850187 14.848196188198125 C-25.026222674885812 14.625562924082148, -25.271366641269754 14.402929659966173, -25.706434736767974 14.007812326905697 M-25.706434736767974 14.007812326905697 C-25.97326690462738 13.732286206262462, -26.240099072486785 13.456760085619225, -26.576045942968655 13.109867360095677 M-25.706434736767974 14.007812326905697 C-26.028864346292192 13.674877283108689, -26.351293955816413 13.341942239311683, -26.576045942968655 13.109867360095677 M-26.576045942968655 13.109867360095677 C-26.80159599520808 12.8449234345737, -27.027146047447506 12.579979509051723, -27.38633890812658 12.158051136245307 M-26.576045942968655 13.109867360095677 C-26.75894961862207 12.895018295159202, -26.94185329427548 12.680169230222726, -27.38633890812658 12.158051136245307 M-27.38633890812658 12.158051136245307 C-27.55292762318389 11.934837434612662, -27.719516338241203 11.711623732980016, -28.133983964640635 11.156274872382316 M-27.38633890812658 12.158051136245307 C-27.652082480205546 11.80197895939695, -27.917826052284514 11.44590678254859, -28.133983964640635 11.156274872382316 M-28.133983964640635 11.156274872382316 C-28.295255534392968 10.908518433762634, -28.4565271041453 10.66076199514295, -28.815908878604244 10.108655082055249 M-28.133983964640635 11.156274872382316 C-28.401561961004692 10.745203215214485, -28.669139957368753 10.334131558046654, -28.815908878604244 10.108655082055249 M-28.815908878604244 10.108655082055249 C-29.032407463647477 9.724239921452018, -29.248906048690714 9.339824760848787, -29.4293114742735 9.019496659696289 M-28.815908878604244 10.108655082055249 C-29.056086819290048 9.682194827713868, -29.296264759975852 9.25573457337249, -29.4293114742735 9.019496659696289 M-29.4293114742735 9.019496659696289 C-29.623717154543904 8.615809104999592, -29.81812283481431 8.212121550302896, -29.97167114880834 7.893275190886686 M-29.4293114742735 9.019496659696289 C-29.589025631261592 8.687846795375007, -29.74873978824968 8.356196931053724, -29.97167114880834 7.893275190886686 M-29.97167114880834 7.893275190886686 C-30.147764652655997 7.458320831846684, -30.323858156503658 7.023366472806682, -30.440759229970325 6.73461856121551 M-29.97167114880834 7.893275190886686 C-30.093157601780863 7.593201303263775, -30.214644054753386 7.293127415640864, -30.440759229970325 6.73461856121551 M-30.440759229970325 6.73461856121551 C-30.552034108436825 6.399476356518615, -30.663308986903324 6.064334151821719, -30.83464813421488 5.5482879393051325 M-30.440759229970325 6.73461856121551 C-30.548015023603153 6.411581199683433, -30.655270817235976 6.088543838151357, -30.83464813421488 5.5482879393051325 M-30.83464813421488 5.5482879393051325 C-30.924928754419366 5.204008806597119, -31.015209374623854 4.859729673889106, -31.151719287545557 4.339158212148136 M-30.83464813421488 5.5482879393051325 C-30.944382305023638 5.129823986920874, -31.05411647583239 4.711360034536615, -31.151719287545557 4.339158212148136 M-31.151719287545557 4.339158212148136 C-31.222473826967096 3.9758486061957377, -31.293228366388636 3.6125390002433395, -31.390669776581777 3.112197953150904 M-31.151719287545557 4.339158212148136 C-31.21696505256918 4.004134998449167, -31.282210817592798 3.6691117847501995, -31.390669776581777 3.112197953150904 M-31.390669776581777 3.112197953150904 C-31.42460192317665 2.8490269248213327, -31.458534069771517 2.5858558964917613, -31.550517702509364 1.872449005199809 M-31.390669776581777 3.112197953150904 C-31.427032478518406 2.8301760175580895, -31.463395180455034 2.5481540819652744, -31.550517702509364 1.872449005199809 M-31.550517702509364 1.872449005199809 C-31.57094543162495 1.5542706352583955, -31.591373160740535 1.2360922653169821, -31.630606215913414 0.6250057626472781 M-31.550517702509364 1.872449005199809 C-31.579461326052698 1.4216287056399681, -31.608404949596032 0.9708084060801271, -31.630606215913414 0.6250057626472781 M-31.630606215913414 0.6250057626472781 C-31.630606215913414 0.160360521703595, -31.630606215913414 -0.30428471924008815, -31.630606215913414 -0.6250057626472687 M-31.630606215913414 0.6250057626472781 C-31.630606215913414 0.34629911293079874, -31.630606215913414 0.06759246321431933, -31.630606215913414 -0.6250057626472687 M-31.630606215913414 -0.6250057626472687 C-31.60437521678463 -1.0335747473595185, -31.578144217655844 -1.4421437320717683, -31.550517702509367 -1.8724490051997822 M-31.630606215913414 -0.6250057626472687 C-31.608968230369904 -0.9620348533549867, -31.587330244826397 -1.2990639440627048, -31.550517702509367 -1.8724490051997822 M-31.550517702509367 -1.8724490051997822 C-31.49240914400819 -2.323127510102162, -31.43430058550701 -2.7738060150045416, -31.390669776581777 -3.112197953150895 M-31.550517702509367 -1.8724490051997822 C-31.51421011893779 -2.1540434536376236, -31.47790253536621 -2.4356379020754653, -31.390669776581777 -3.112197953150895 M-31.390669776581777 -3.112197953150895 C-31.302545137235597 -3.5646993510444154, -31.214420497889414 -4.0172007489379356, -31.15171928754556 -4.339158212148126 M-31.390669776581777 -3.112197953150895 C-31.299673095535972 -3.5794466781657515, -31.208676414490167 -4.046695403180608, -31.15171928754556 -4.339158212148126 M-31.15171928754556 -4.339158212148126 C-31.049884766311067 -4.727497376975937, -30.948050245076576 -5.115836541803748, -30.834648134214884 -5.548287939305123 M-31.15171928754556 -4.339158212148126 C-31.036449532256775 -4.778731747292229, -30.92117977696799 -5.21830528243633, -30.834648134214884 -5.548287939305123 M-30.834648134214884 -5.548287939305123 C-30.72655853632857 -5.873836586400033, -30.61846893844226 -6.199385233494944, -30.440759229970332 -6.734618561215485 M-30.834648134214884 -5.548287939305123 C-30.7280875150023 -5.869231546244428, -30.621526895789717 -6.190175153183734, -30.440759229970332 -6.734618561215485 M-30.440759229970332 -6.734618561215485 C-30.29762289104495 -7.08816808571404, -30.15448655211956 -7.441717610212594, -29.971671148808344 -7.893275190886676 M-30.440759229970332 -6.734618561215485 C-30.298501047578306 -7.085999022098639, -30.156242865186282 -7.437379482981793, -29.971671148808344 -7.893275190886676 M-29.971671148808344 -7.893275190886676 C-29.770077621869415 -8.311888462985847, -29.568484094930483 -8.730501735085017, -29.429311474273504 -9.019496659696282 M-29.971671148808344 -7.893275190886676 C-29.763633697475285 -8.325269409868147, -29.55559624614223 -8.757263628849618, -29.429311474273504 -9.019496659696282 M-29.429311474273504 -9.019496659696282 C-29.27743353710201 -9.289171316453087, -29.12555559993051 -9.558845973209895, -28.815908878604247 -10.108655082055243 M-29.429311474273504 -9.019496659696282 C-29.231710907750877 -9.370356474784295, -29.03411034122825 -9.721216289872306, -28.815908878604247 -10.108655082055243 M-28.815908878604247 -10.108655082055243 C-28.553344482118074 -10.512024503470574, -28.290780085631898 -10.915393924885905, -28.13398396464064 -11.156274872382308 M-28.815908878604247 -10.108655082055243 C-28.617737624521606 -10.413099344758905, -28.419566370438964 -10.717543607462567, -28.13398396464064 -11.156274872382308 M-28.13398396464064 -11.156274872382308 C-27.953019496069658 -11.398750774065187, -27.772055027498673 -11.641226675748065, -27.386338908126586 -12.158051136245302 M-28.13398396464064 -11.156274872382308 C-27.901156076290338 -11.468243031714735, -27.668328187940034 -11.78021119104716, -27.386338908126586 -12.158051136245302 M-27.386338908126586 -12.158051136245302 C-27.191528553420415 -12.386886463906377, -26.996718198714245 -12.615721791567454, -26.576045942968662 -13.10986736009567 M-27.386338908126586 -12.158051136245302 C-27.131545050069665 -12.457346500100199, -26.876751192012744 -12.756641863955098, -26.576045942968662 -13.10986736009567 M-26.576045942968662 -13.10986736009567 C-26.36774942426667 -13.324950617117706, -26.159452905564677 -13.540033874139741, -25.706434736767996 -14.007812326905677 M-26.576045942968662 -13.10986736009567 C-26.356115564920312 -13.336963532050435, -26.136185186871963 -13.5640597040052, -25.706434736767996 -14.007812326905677 M-25.706434736767996 -14.007812326905677 C-25.438932560155006 -14.25075072598585, -25.171430383542013 -14.493689125066021, -24.781078708501887 -14.848196188198107 M-25.706434736767996 -14.007812326905677 C-25.512268296674602 -14.184149150436012, -25.318101856581208 -14.360485973966346, -24.781078708501887 -14.848196188198107 M-24.781078708501887 -14.848196188198107 C-24.411661096030432 -15.142796903528566, -24.04224348355898 -15.437397618859025, -23.80378034457872 -15.627565626425149 M-24.781078708501887 -14.848196188198107 C-24.561213098233342 -15.023533161517662, -24.3413474879648 -15.198870134837216, -23.80378034457872 -15.627565626425149 M-23.80378034457872 -15.627565626425149 C-23.59401637110649 -15.773887893783316, -23.384252397634267 -15.920210161141481, -22.77855557360571 -16.342718045390885 M-23.80378034457872 -15.627565626425149 C-23.403382624313103 -15.90686574314449, -23.002984904047487 -16.18616585986383, -22.77855557360571 -16.342718045390885 M-22.77855557360571 -16.342718045390885 C-22.56345370640988 -16.47311406136388, -22.348351839214054 -16.60351007733687, -21.70961726407679 -16.99071473040609 M-22.77855557360571 -16.342718045390885 C-22.410098290658944 -16.566079015608555, -22.041641007712176 -16.789439985826224, -21.70961726407679 -16.99071473040609 M-21.70961726407679 -16.99071473040609 C-21.284081484718424 -17.212716473928676, -20.858545705360058 -17.43471821745126, -20.601357912792388 -17.56889292409717 M-21.70961726407679 -16.99071473040609 C-21.47441897210198 -17.113417528677655, -21.23922068012717 -17.236120326949216, -20.601357912792388 -17.56889292409717 M-20.601357912792388 -17.56889292409717 C-20.174104655958523 -17.75802526687997, -19.746851399124655 -17.947157609662764, -19.458331595147804 -18.07487676824742 M-20.601357912792388 -17.56889292409717 C-20.23893172130257 -17.729328248078726, -19.87650552981275 -17.889763572060282, -19.458331595147804 -18.07487676824742 M-19.458331595147804 -18.07487676824742 C-19.20216090427697 -18.169149950503797, -18.945990213406134 -18.26342313276017, -18.28523525146062 -18.506587066708033 M-19.458331595147804 -18.07487676824742 C-19.11547391290833 -18.20105156465322, -18.77261623066886 -18.327226361059015, -18.28523525146062 -18.506587066708033 M-18.28523525146062 -18.506587066708033 C-17.86039041397802 -18.63267878441681, -17.435545576495418 -18.758770502125586, -17.086889386235413 -18.862249829261067 M-18.28523525146062 -18.506587066708033 C-18.03420517606837 -18.581091475400697, -17.78317510067612 -18.655595884093362, -17.086889386235413 -18.862249829261067 M-17.086889386235413 -18.862249829261067 C-16.77587519906428 -18.933236787925637, -16.46486101189315 -19.004223746590203, -15.868218259676768 -19.140403561325773 M-17.086889386235413 -18.862249829261067 C-16.60838609548218 -18.971465082849704, -16.129882804728947 -19.080680336438345, -15.868218259676768 -19.140403561325773 M-15.868218259676768 -19.140403561325773 C-15.46381704875477 -19.205784012929414, -15.059415837832772 -19.27116446453305, -14.63422965284788 -19.3399052695533 M-15.868218259676768 -19.140403561325773 C-15.517547611008407 -19.197097272310977, -15.166876962340046 -19.25379098329618, -14.63422965284788 -19.3399052695533 M-14.63422965284788 -19.3399052695533 C-14.23615388030596 -19.378307160574256, -13.838078107764037 -19.416709051595216, -13.389994289623903 -19.45993515863156 M-14.63422965284788 -19.3399052695533 C-14.161599267817412 -19.385499354375987, -13.688968882786945 -19.431093439198676, -13.389994289623903 -19.45993515863156 M-13.389994289623903 -19.45993515863156 C-13.060840456239447 -19.47049048140913, -12.731686622854992 -19.481045804186696, -12.140625000000005 -19.5 M-13.389994289623903 -19.45993515863156 C-13.062637104185683 -19.470432866406455, -12.735279918747464 -19.48093057418135, -12.140625000000005 -19.5 M-12.140625000000005 -19.5 C-12.140625000000004 -19.5, -12.140625000000002 -19.5, -12.140625 -19.5 M-12.140625000000005 -19.5 C-12.140625000000004 -19.5, -12.140625000000002 -19.5, -12.140625 -19.5" stroke="#f04e30" stroke-width="1.3" fill="none" stroke-dasharray="0 0" style=""/></g><g class="label" style="" transform="translate(-19.265625, -12)"><rect/><foreignObject width="38.53125" height="24"><div xmlns="http://www.w3.org/1999/xhtml" style="display: table-cell; white-space: nowrap; line-height: 1.5; max-width: 200px; text-align: center;"><span class="nodeLabel"><p>Done</p></span></div></foreignObject></g></g></g></g></g></svg>